<svg width="512" height="512" viewBox="0 0 512 512" xmlns="http://www.w3.org/2000/svg">
  <defs>
    <clipPath id="clipPath3">
      <path d="M 0,0 H 566.929 V 340.157 H 0 Z" transform="translate(-113.9527,-176.0349)" />
    </clipPath>
  </defs>

  <style>
    /* Default Color (Your original #7f2024) */
    .icon-path {
      fill: #7f2024;
    }

    /* Dark Mode Override */
    @media (prefers-color-scheme: dark) {
      .icon-path {
        /* I changed this to White (#ffffff) or a Lighter Red (#ff8e92) so it's visible on dark tabs */
        fill: #ffffff; 
      }
    }
  </style>

  <path
    id="path2"
    class="icon-path"
    d="m 0,0 h 16.521 l 7.1,36.956 c 2.61,-0.292 5.655,-0.726 9.13,-0.726 11.597,0 22.753,3.041 30.579,9.275 6.957,5.505 12.466,14.926 12.466,26.519 0,8.696 -3.333,15.072 -8.987,19.419 -6.377,5.074 -15.941,6.958 -25.071,6.958 -8.695,0 -20.828,-1.576 -26.77,-3.027 0.925,-1.139 2.143,-6.433 1.338,-10.186 z m 32.463,84.053 c 2.029,0.58 5.216,0.869 9.421,0.869 9.564,0 16.953,-3.767 16.953,-14.2 0,-11.594 -9.565,-20.726 -23.765,-20.726 -3.624,0 -6.088,0.291 -8.841,0.868 z"
    transform="matrix(4.4743155,0,0,-4.4743155,86.432391,476.13856)"
    clip-path="url(#clipPath3)" 
  />
</svg>