<?xml version="1.0" encoding="UTF-8" standalone="no"?>
<!-- Created with Inkscape (http://www.inkscape.org/) -->

<svg
   version="1.1"
   id="svg1"
   width="121.50933"
   height="121.516"
   viewBox="0 0 121.50933 121.516"
   sodipodi:docname="AH Logo2.svg"
   inkscape:version="1.4 (e7c3feb1, 2024-10-09)"
   xmlns:inkscape="http://www.inkscape.org/namespaces/inkscape"
   xmlns:sodipodi="http://sodipodi.sourceforge.net/DTD/sodipodi-0.dtd"
   xmlns="http://www.w3.org/2000/svg"
   xmlns:svg="http://www.w3.org/2000/svg">
  <defs
     id="defs1">
    <clipPath
       clipPathUnits="userSpaceOnUse"
       id="clipPath1">
      <path
         d="M 0,0 H 113 V 113 H 0 Z"
         id="path1" />
    </clipPath>
    <clipPath
       clipPathUnits="userSpaceOnUse"
       id="clipPath3">
      <path
         d="M 0,0 H 113 V 113 H 0 Z"
         id="path3" />
    </clipPath>
    <clipPath
       clipPathUnits="userSpaceOnUse"
       id="clipPath6">
      <path
         d="M 0,0 H 113 V 113 H 0 Z"
         id="path6" />
    </clipPath>
    <clipPath
       clipPathUnits="userSpaceOnUse"
       id="clipPath8">
      <path
         d="M 0,0 H 113 V 113 H 0 Z"
         id="path8" />
    </clipPath>
    <clipPath
       clipPathUnits="userSpaceOnUse"
       id="clipPath10">
      <path
         d="M 0,0 H 113 V 113 H 0 Z"
         id="path10" />
    </clipPath>
    <clipPath
       clipPathUnits="userSpaceOnUse"
       id="clipPath12">
      <path
         d="M 0,0 H 113 V 113 H 0 Z"
         id="path12" />
    </clipPath>
    <clipPath
       clipPathUnits="userSpaceOnUse"
       id="clipPath14">
      <path
         d="M 0,0 H 113 V 113 H 0 Z"
         id="path14" />
    </clipPath>
    <clipPath
       clipPathUnits="userSpaceOnUse"
       id="clipPath16">
      <path
         d="M 0,0 H 113 V 113 H 0 Z"
         id="path16" />
    </clipPath>
    <clipPath
       clipPathUnits="userSpaceOnUse"
       id="clipPath18">
      <path
         d="M 0,0 H 113 V 113 H 0 Z"
         id="path18" />
    </clipPath>
    <clipPath
       clipPathUnits="userSpaceOnUse"
       id="clipPath20">
      <path
         d="M 0,0 H 113 V 113 H 0 Z"
         id="path20" />
    </clipPath>
    <clipPath
       clipPathUnits="userSpaceOnUse"
       id="clipPath22">
      <path
         d="M 0,0 H 113 V 113 H 0 Z"
         id="path22" />
    </clipPath>
    <clipPath
       clipPathUnits="userSpaceOnUse"
       id="clipPath24">
      <path
         d="M 0,0 H 113 V 113 H 0 Z"
         id="path24" />
    </clipPath>
    <clipPath
       clipPathUnits="userSpaceOnUse"
       id="clipPath26">
      <path
         d="M 0,0 H 113 V 113 H 0 Z"
         id="path26" />
    </clipPath>
    <clipPath
       clipPathUnits="userSpaceOnUse"
       id="clipPath28">
      <path
         d="M 0,0 H 113 V 113 H 0 Z"
         id="path28" />
    </clipPath>
    <clipPath
       clipPathUnits="userSpaceOnUse"
       id="clipPath30">
      <path
         d="M 0,0 H 113 V 113 H 0 Z"
         id="path30" />
    </clipPath>
    <clipPath
       clipPathUnits="userSpaceOnUse"
       id="clipPath32">
      <path
         d="M 0,0 H 113 V 113 H 0 Z"
         id="path32" />
    </clipPath>
    <clipPath
       clipPathUnits="userSpaceOnUse"
       id="clipPath34">
      <path
         d="M 0,0 H 113 V 113 H 0 Z"
         id="path34" />
    </clipPath>
    <clipPath
       clipPathUnits="userSpaceOnUse"
       id="clipPath36">
      <path
         d="M 0,0 H 113 V 113 H 0 Z"
         id="path36" />
    </clipPath>
    <clipPath
       clipPathUnits="userSpaceOnUse"
       id="clipPath38">
      <path
         d="M 0,0 H 113 V 113 H 0 Z"
         id="path38" />
    </clipPath>
    <clipPath
       clipPathUnits="userSpaceOnUse"
       id="clipPath40">
      <path
         d="M 0,0 H 113 V 113 H 0 Z"
         id="path40" />
    </clipPath>
    <clipPath
       clipPathUnits="userSpaceOnUse"
       id="clipPath42">
      <path
         d="M 0,0 H 113 V 113 H 0 Z"
         id="path42" />
    </clipPath>
    <clipPath
       clipPathUnits="userSpaceOnUse"
       id="clipPath44">
      <path
         d="M 0,0 H 113 V 113 H 0 Z"
         id="path44" />
    </clipPath>
    <clipPath
       clipPathUnits="userSpaceOnUse"
       id="clipPath46">
      <path
         d="M 0,0 H 113 V 113 H 0 Z"
         id="path46" />
    </clipPath>
    <clipPath
       clipPathUnits="userSpaceOnUse"
       id="clipPath48">
      <path
         d="M 0,0 H 113 V 113 H 0 Z"
         id="path48" />
    </clipPath>
    <clipPath
       clipPathUnits="userSpaceOnUse"
       id="clipPath50">
      <path
         d="M 0,0 H 113 V 113 H 0 Z"
         id="path50" />
    </clipPath>
    <clipPath
       clipPathUnits="userSpaceOnUse"
       id="clipPath52">
      <path
         d="M 0,0 H 113 V 113 H 0 Z"
         id="path52" />
    </clipPath>
    <clipPath
       clipPathUnits="userSpaceOnUse"
       id="clipPath54">
      <path
         d="M 0,0 H 113 V 113 H 0 Z"
         id="path54" />
    </clipPath>
    <clipPath
       clipPathUnits="userSpaceOnUse"
       id="clipPath56">
      <path
         d="M 0,0 H 113 V 113 H 0 Z"
         transform="scale(1,-1)"
         id="path56" />
    </clipPath>
    <clipPath
       clipPathUnits="userSpaceOnUse"
       id="clipPath58">
      <path
         d="M 0,0 H 113 V 113 H 0 Z"
         transform="scale(1,-1)"
         id="path58" />
    </clipPath>
    <clipPath
       clipPathUnits="userSpaceOnUse"
       id="clipPath60">
      <path
         d="M 0,0 H 113 V 113 H 0 Z"
         transform="scale(1,-1)"
         id="path60" />
    </clipPath>
    <clipPath
       clipPathUnits="userSpaceOnUse"
       id="clipPath62">
      <path
         d="M 0,0 H 113 V 113 H 0 Z"
         transform="scale(1,-1)"
         id="path62" />
    </clipPath>
    <clipPath
       clipPathUnits="userSpaceOnUse"
       id="clipPath64">
      <path
         d="M 0,0 H 113 V 113 H 0 Z"
         transform="scale(1,-1)"
         id="path64" />
    </clipPath>
    <clipPath
       clipPathUnits="userSpaceOnUse"
       id="clipPath66">
      <path
         d="M 0,0 H 113 V 113 H 0 Z"
         transform="scale(1,-1)"
         id="path66" />
    </clipPath>
    <clipPath
       clipPathUnits="userSpaceOnUse"
       id="clipPath68">
      <path
         d="M 0,0 H 113 V 113 H 0 Z"
         transform="scale(1,-1)"
         id="path68" />
    </clipPath>
    <clipPath
       clipPathUnits="userSpaceOnUse"
       id="clipPath70">
      <path
         d="M 0,0 H 113 V 113 H 0 Z"
         transform="scale(1,-1)"
         id="path70" />
    </clipPath>
    <clipPath
       clipPathUnits="userSpaceOnUse"
       id="clipPath72">
      <path
         d="M 0,0 H 113 V 113 H 0 Z"
         transform="scale(1,-1)"
         id="path72" />
    </clipPath>
    <clipPath
       clipPathUnits="userSpaceOnUse"
       id="clipPath74">
      <path
         d="M 0,0 H 113 V 113 H 0 Z"
         transform="scale(1,-1)"
         id="path74" />
    </clipPath>
    <clipPath
       clipPathUnits="userSpaceOnUse"
       id="clipPath76">
      <path
         d="M 0,0 H 113 V 113 H 0 Z"
         transform="scale(1,-1)"
         id="path76" />
    </clipPath>
    <clipPath
       clipPathUnits="userSpaceOnUse"
       id="clipPath78">
      <path
         d="M 0,0 H 113 V 113 H 0 Z"
         id="path78" />
    </clipPath>
    <clipPath
       clipPathUnits="userSpaceOnUse"
       id="clipPath80">
      <path
         d="M 0,0 H 113 V 113 H 0 Z"
         transform="scale(1,-1)"
         id="path80" />
    </clipPath>
    <clipPath
       clipPathUnits="userSpaceOnUse"
       id="clipPath82">
      <path
         d="M 0,0 H 113 V 113 H 0 Z"
         transform="scale(1,-1)"
         id="path82" />
    </clipPath>
    <clipPath
       clipPathUnits="userSpaceOnUse"
       id="clipPath84">
      <path
         d="M 0,0 H 113 V 113 H 0 Z"
         id="path84" />
    </clipPath>
    <clipPath
       clipPathUnits="userSpaceOnUse"
       id="clipPath86">
      <path
         d="M 0,0 H 113 V 113 H 0 Z"
         transform="scale(1,-1)"
         id="path86" />
    </clipPath>
    <clipPath
       clipPathUnits="userSpaceOnUse"
       id="clipPath88">
      <path
         d="M 0,0 H 113 V 113 H 0 Z"
         transform="scale(1,-1)"
         id="path88" />
    </clipPath>
    <clipPath
       clipPathUnits="userSpaceOnUse"
       id="clipPath90">
      <path
         d="M 0,0 H 113 V 113 H 0 Z"
         transform="scale(1,-1)"
         id="path90" />
    </clipPath>
    <clipPath
       clipPathUnits="userSpaceOnUse"
       id="clipPath92">
      <path
         d="M 0,0 H 113 V 113 H 0 Z"
         transform="scale(1,-1)"
         id="path92" />
    </clipPath>
    <clipPath
       clipPathUnits="userSpaceOnUse"
       id="clipPath94">
      <path
         d="M 0,0 H 113 V 113 H 0 Z"
         transform="scale(1,-1)"
         id="path94" />
    </clipPath>
    <clipPath
       clipPathUnits="userSpaceOnUse"
       id="clipPath96">
      <path
         d="M 0,0 H 113 V 113 H 0 Z"
         transform="scale(1,-1)"
         id="path96" />
    </clipPath>
    <clipPath
       clipPathUnits="userSpaceOnUse"
       id="clipPath98">
      <path
         d="M 0,0 H 113 V 113 H 0 Z"
         id="path98" />
    </clipPath>
    <clipPath
       clipPathUnits="userSpaceOnUse"
       id="clipPath100">
      <path
         d="M 0,0 H 113 V 113 H 0 Z"
         id="path100" />
    </clipPath>
    <clipPath
       clipPathUnits="userSpaceOnUse"
       id="clipPath102">
      <path
         d="M 0,0 H 113 V 113 H 0 Z"
         id="path102" />
    </clipPath>
    <clipPath
       clipPathUnits="userSpaceOnUse"
       id="clipPath104">
      <path
         d="M 0,0 H 113 V 113 H 0 Z"
         id="path104" />
    </clipPath>
    <clipPath
       clipPathUnits="userSpaceOnUse"
       id="clipPath106">
      <path
         d="M 0,0 H 113 V 113 H 0 Z"
         id="path106" />
    </clipPath>
    <clipPath
       clipPathUnits="userSpaceOnUse"
       id="clipPath108">
      <path
         d="M 0,0 H 113 V 113 H 0 Z"
         id="path108" />
    </clipPath>
  </defs>
  <sodipodi:namedview
     id="namedview1"
     pagecolor="#ffffff"
     bordercolor="#000000"
     borderopacity="0.25"
     inkscape:showpageshadow="2"
     inkscape:pageopacity="0.0"
     inkscape:pagecheckerboard="0"
     inkscape:deskcolor="#d1d1d1"
     inkscape:zoom="3.6263607"
     inkscape:cx="62.183555"
     inkscape:cy="76.523"
     inkscape:window-width="1512"
     inkscape:window-height="838"
     inkscape:window-x="0"
     inkscape:window-y="38"
     inkscape:window-maximized="0"
     inkscape:current-layer="g1">
    <inkscape:page
       x="0"
       y="0"
       id="page1"
       width="121.50933"
       height="121.516"
       margin="0"
       bleed="0" />
  </sodipodi:namedview>
  <g
     id="g1"
     inkscape:groupmode="layer"
     inkscape:label=""
     transform="translate(-12.917333,-3.8226667)">
    <g
       id="g2">
      <path
         d="m 89.426,83.465 h 2.273 v 0.426 h -0.894 v 2.386 h -0.493 v -2.386 h -0.886 z"
         style="fill:#18468b;fill-opacity:1;fill-rule:nonzero;stroke:none"
         transform="scale(1.3333333)"
         clip-path="url(#clipPath1)"
         id="path2" />
    </g>
    <g
       id="g4">
      <path
         d="m 92.016,83.465 h 0.695 l 0.773,2.199 h 0.008 l 0.758,-2.199 h 0.684 v 2.812 h -0.469 v -2.168 h -0.008 l -0.781,2.168 h -0.403 l -0.781,-2.168 h -0.008 v 2.168 h -0.468 z"
         style="fill:#18468b;fill-opacity:1;fill-rule:nonzero;stroke:none"
         transform="scale(1.3333333)"
         clip-path="url(#clipPath3)"
         id="path4" />
    </g>
    <g
       id="g35">
      <path
         d="m 55.254,94.004 c 25.164,0 45.566,-20.402 45.566,-45.566 C 100.82,23.27 80.418,2.867 55.254,2.867 30.09,2.867 9.688,23.27 9.688,48.438 c 0,25.164 20.402,45.566 45.566,45.566"
         style="fill:#d41042;fill-opacity:1;fill-rule:nonzero;stroke:none"
         transform="scale(1.3333333)"
         clip-path="url(#clipPath34)"
         id="path35" />
    </g>
    <g
       id="g37">
      <path
         d="m 17.953,50.738 3.641,1.242 -0.067,-2.765 z m 8.203,2.824 c 0.125,0.711 0.278,1.418 0.453,2.114 L 15.742,51.867 C 15.656,50.859 15.609,49.84 15.598,48.805 l 10.39,-4.41 c -0.136,1 -0.222,2.011 -0.258,3.039 l -2.554,1.082 0.094,4.039 z"
         style="fill:#ffffff;fill-opacity:1;fill-rule:nonzero;stroke:none"
         transform="scale(1.3333333)"
         clip-path="url(#clipPath36)"
         id="path37" />
    </g>
    <g
       id="g39">
      <path
         d="m 20.887,40.914 -2.86,-0.734 c 0.422,-1.559 0.84,-2.297 1.774,-2.106 1.453,0.293 1.426,1.379 1.086,2.84 m 1.711,0.438 c 0.058,-0.34 0.109,-0.688 0.148,-1.008 l 4.402,-1.039 c 0.387,-1.18 0.844,-2.325 1.368,-3.438 l -5.809,1.949 c -0.234,-1.254 -0.906,-2.14 -2.305,-2.543 -1.558,-0.449 -2.703,0.418 -3.082,1.567 -0.636,1.922 -0.98,3.676 -1.269,5.586 l 9.859,2.578 c 0.098,-0.863 0.262,-1.848 0.438,-2.684 z"
         style="fill:#ffffff;fill-opacity:1;fill-rule:nonzero;stroke:none"
         transform="scale(1.3333333)"
         clip-path="url(#clipPath38)"
         id="path39" />
    </g>
    <g
       id="g41">
      <path
         d="m 19.367,31.535 c 0.555,-1.176 1.168,-2.324 1.832,-3.433 l 6.356,1.847 -4.078,-5.246 c 0.707,-0.941 1.449,-1.848 2.234,-2.723 l 8.371,5.856 c -0.613,0.629 -1.199,1.289 -1.754,1.969 l -5.805,-4.094 4.204,5.664 c -0.348,0.504 -0.875,1.234 -1.196,1.762 l -6.777,-2.032 6.105,4.047 c -0.347,0.696 -0.671,1.407 -0.968,2.129 z"
         style="fill:#ffffff;fill-opacity:1;fill-rule:nonzero;stroke:none"
         transform="scale(1.3333333)"
         clip-path="url(#clipPath40)"
         id="path41" />
    </g>
    <g
       id="g43">
      <path
         d="m 38.945,14.555 c -0.269,-0.508 -0.84,-0.508 -1.144,-0.344 -0.367,0.195 -0.563,0.512 -0.344,1.004 0.207,0.473 0.656,0.64 1.109,0.867 0.231,-0.273 0.645,-1.023 0.379,-1.527 m -0.488,4.125 c -0.332,0.652 -0.363,1.363 0.172,2.113 0.574,0.805 1.715,0.855 2.402,0.488 0.453,-0.242 0.637,-0.609 0.899,-0.933 -1.118,-0.52 -2.442,-1.18 -3.473,-1.668 m 4.941,2.316 c -0.527,0.871 -1.148,1.492 -1.679,1.801 -2.68,1.562 -4.567,0.629 -5.149,-0.231 -1.132,-1.664 -0.433,-3.382 0.41,-4.609 -0.687,-0.363 -1.449,-0.816 -1.843,-1.598 -0.77,-1.547 0.972,-3.148 1.859,-3.578 0.891,-0.429 2.785,-1.058 3.723,0.602 0.609,1.074 -0.055,2.371 -0.781,3.375 0.777,0.367 1.824,0.851 2.867,1.336 -0.02,-1.082 -0.375,-2.153 -0.657,-2.852 l 2.032,-0.859 c 0.476,1.633 0.433,3.133 0.125,4.398 1.418,0.653 2.707,1.281 2.707,1.281 -0.992,0.301 -2.188,0.731 -3.223,1.141 z"
         style="fill:#ffffff;fill-opacity:1;fill-rule:nonzero;stroke:none"
         transform="scale(1.3333333)"
         clip-path="url(#clipPath42)"
         id="path43" />
    </g>
    <g
       id="g45">
      <path
         d="m 90.43,48.809 2.953,0.144 c -0.106,1.762 -0.207,2.606 -1.324,2.606 -1.481,0.003 -1.664,-1.25 -1.629,-2.75 m -1.762,0.089 c 0.012,0.348 0.027,0.696 0.055,1.02 l -4.11,1.891 c -0.144,1.234 -0.363,2.449 -0.656,3.64 l 5.301,-3.058 c 0.484,1.179 1.316,1.918 2.769,2.031 1.614,0.133 2.567,-0.945 2.707,-2.149 0.246,-2.011 0.231,-4.007 0.129,-5.937 L 84.719,46.23 c 0.066,0.868 0.09,1.864 0.078,2.723 z"
         style="fill:#ffffff;fill-opacity:1;fill-rule:nonzero;stroke:none"
         transform="scale(1.3333333)"
         clip-path="url(#clipPath44)"
         id="path45" />
    </g>
    <g
       id="g47">
      <path
         d="m 67.418,13.098 -2.543,2.886 2.582,1 z m -5.75,6.496 c -0.707,-0.16 -1.414,-0.289 -2.125,-0.395 l 7.676,-8.574 c 0.969,0.305 1.929,0.652 2.883,1.039 l 0.093,11.285 C 69.328,22.441 68.426,21.973 67.492,21.547 L 67.469,18.77 63.703,17.312 Z"
         style="fill:#ffffff;fill-opacity:1;fill-rule:nonzero;stroke:none"
         transform="scale(1.3333333)"
         clip-path="url(#clipPath46)"
         id="path47" />
    </g>
    <g
       id="g49">
      <path
         d="m 75.117,14.102 c 1.129,0.652 2.219,1.359 3.27,2.113 l -2.375,6.176 5.57,-3.618 c 0.879,0.782 1.719,1.598 2.523,2.45 l -6.539,7.851 C 76.988,28.41 76.383,27.77 75.75,27.16 l 4.57,-5.437 -6,3.711 c -0.472,-0.391 -1.156,-0.977 -1.652,-1.34 l 2.594,-6.582 -4.547,5.742 c -0.664,-0.406 -1.344,-0.789 -2.043,-1.145 z"
         style="fill:#ffffff;fill-opacity:1;fill-rule:nonzero;stroke:none"
         transform="scale(1.3333333)"
         clip-path="url(#clipPath48)"
         id="path49" />
    </g>
    <g
       id="g51">
      <path
         d="m 86.281,23.719 c 0.813,1.019 1.571,2.078 2.274,3.168 l -4.465,4.883 6.504,-1.34 c 0.531,1.047 1.019,2.117 1.453,3.203 l -8.953,4.922 C 82.801,37.727 82.469,36.91 82.102,36.109 l 6.242,-3.394 -6.942,1.265 c -0.297,-0.535 -0.718,-1.332 -1.054,-1.851 l 4.82,-5.18 -6.328,3.688 C 78.371,30.016 77.879,29.41 77.355,28.824 Z"
         style="fill:#ffffff;fill-opacity:1;fill-rule:nonzero;stroke:none"
         transform="scale(1.3333333)"
         clip-path="url(#clipPath50)"
         id="path51" />
    </g>
    <g
       id="g53">
      <path
         d="M 60.746,19.406 61.09,9.203 C 60.145,9.066 59.191,8.957 58.227,8.887 l -0.141,4.148 c -0.938,-0.074 -1.879,-0.117 -2.832,-0.117 -0.352,0 -0.707,0.016 -1.063,0.027 L 54.168,8.797 C 53.203,8.824 52.25,8.879 51.305,8.973 l 0.058,10.183 c 0.942,-0.125 1.895,-0.203 2.86,-0.234 L 54.195,14.59 c 0.352,-0.012 0.707,-0.012 1.059,-0.012 0.934,0 1.855,0.043 2.769,0.117 l -0.16,4.321 c 0.942,0.082 1.871,0.203 2.789,0.371"
         style="fill:#ffffff;fill-opacity:1;fill-rule:nonzero;stroke:none"
         transform="scale(1.3333333)"
         clip-path="url(#clipPath52)"
         id="path53" />
    </g>
    <g
       id="g55">
      <path
         d="m 83.945,41.371 c 0.364,1.484 0.621,3.004 0.75,4.567 L 86.43,45.754 C 86.293,44.125 86.035,42.543 85.656,41 l 2.559,-0.547 c 0.324,1.344 0.562,2.735 0.723,4.137 l 1.82,-0.141 c -0.164,-1.484 -0.426,-2.969 -0.766,-4.39 l 2.16,-0.481 c 0.364,1.66 0.637,3.367 0.793,5.102 l 1.758,-0.133 c -0.273,-2.844 -0.832,-5.613 -1.676,-8.25 l -9.836,2.523 c 0.18,0.532 0.352,1.063 0.508,1.606 0.086,0.308 0.168,0.625 0.246,0.945"
         style="fill:#ffffff;fill-opacity:1;fill-rule:nonzero;stroke:none"
         transform="scale(1.3333333)"
         clip-path="url(#clipPath54)"
         id="path55" />
    </g>
    <g
       id="g57">
      <path
         d="m 33.762,-73.355 -0.321,-0.344 -0.765,0.707 -2.364,-2.535 -0.312,0.289 2.367,2.535 -0.765,0.715 0.324,0.343 z"
         style="fill:#ffffff;fill-opacity:1;fill-rule:nonzero;stroke:#ffffff;stroke-width:0.0311378;stroke-linecap:butt;stroke-linejoin:miter;stroke-miterlimit:4;stroke-dasharray:none;stroke-opacity:1"
         transform="scale(1.3333333,-1.3333333)"
         clip-path="url(#clipPath56)"
         id="path57" />
    </g>
    <g
       id="g59">
      <path
         d="m 33.883,-73.449 0.344,-0.274 -1.012,-1.277 1.289,-1.02 1.012,1.278 0.343,-0.27 -2.453,-3.097 -0.34,0.269 1.149,1.453 -1.289,1.02 -1.149,-1.449 -0.343,0.269 z"
         style="fill:#ffffff;fill-opacity:1;fill-rule:nonzero;stroke:#ffffff;stroke-width:0.0311378;stroke-linecap:butt;stroke-linejoin:miter;stroke-miterlimit:4;stroke-dasharray:none;stroke-opacity:1"
         transform="scale(1.3333333,-1.3333333)"
         clip-path="url(#clipPath58)"
         id="path59" />
    </g>
    <g
       id="g61">
      <path
         d="m 36.211,-75.258 1.715,-1.144 -0.27,-0.403 -1.398,0.934 -0.664,-0.996 1.289,-0.86 -0.25,-0.382 -1.293,0.863 -0.742,-1.109 1.418,-0.95 -0.266,-0.39 -1.73,1.152 z"
         style="fill:#ffffff;fill-opacity:1;fill-rule:nonzero;stroke:#ffffff;stroke-width:0.0311378;stroke-linecap:butt;stroke-linejoin:miter;stroke-miterlimit:4;stroke-dasharray:none;stroke-opacity:1"
         transform="scale(1.3333333,-1.3333333)"
         clip-path="url(#clipPath60)"
         id="path61" />
    </g>
    <g
       id="g63">
      <path
         d="m 38.172,-79.633 c -0.094,-0.203 -0.141,-0.387 -0.141,-0.539 0,-0.297 0.153,-0.523 0.457,-0.68 0.137,-0.07 0.274,-0.109 0.41,-0.117 0.266,-0.015 0.469,0.106 0.602,0.364 0.098,0.191 0.121,0.351 0.07,0.476 -0.05,0.129 -0.16,0.274 -0.328,0.434 l -0.308,0.293 c -0.204,0.195 -0.336,0.359 -0.391,0.496 -0.094,0.234 -0.066,0.5 0.086,0.789 0.164,0.316 0.383,0.531 0.652,0.648 0.278,0.117 0.567,0.094 0.875,-0.066 0.285,-0.149 0.477,-0.363 0.586,-0.645 0.106,-0.277 0.059,-0.613 -0.144,-1.004 L 40.242,-79 c 0.078,0.199 0.113,0.363 0.11,0.492 -0.016,0.238 -0.157,0.426 -0.422,0.567 -0.211,0.109 -0.395,0.129 -0.551,0.062 -0.152,-0.07 -0.274,-0.183 -0.352,-0.34 -0.089,-0.172 -0.097,-0.328 -0.031,-0.465 0.051,-0.086 0.18,-0.234 0.395,-0.441 l 0.32,-0.309 c 0.152,-0.148 0.258,-0.293 0.305,-0.441 0.089,-0.254 0.054,-0.535 -0.11,-0.848 -0.199,-0.386 -0.453,-0.605 -0.761,-0.664 -0.301,-0.051 -0.602,0 -0.891,0.149 -0.336,0.176 -0.547,0.422 -0.621,0.742 -0.078,0.324 -0.016,0.672 0.187,1.047 z"
         style="fill:#ffffff;fill-opacity:1;fill-rule:nonzero;stroke:#ffffff;stroke-width:0.0311378;stroke-linecap:butt;stroke-linejoin:miter;stroke-miterlimit:4;stroke-dasharray:none;stroke-opacity:1"
         transform="scale(1.3333333,-1.3333333)"
         clip-path="url(#clipPath62)"
         id="path63" />
    </g>
    <g
       id="g65">
      <path
         d="m 43.602,-79.223 -0.184,-0.433 -0.961,0.41 -1.355,-3.195 -0.391,0.164 1.355,3.195 -0.961,0.406 0.184,0.434 z"
         style="fill:#ffffff;fill-opacity:1;fill-rule:nonzero;stroke:#ffffff;stroke-width:0.0311378;stroke-linecap:butt;stroke-linejoin:miter;stroke-miterlimit:4;stroke-dasharray:none;stroke-opacity:1"
         transform="scale(1.3333333,-1.3333333)"
         clip-path="url(#clipPath64)"
         id="path65" />
    </g>
    <g
       id="g67">
      <path
         d="m 44.277,-81.906 0.11,1.804 -1.043,-1.48 z m 0.09,2.429 0.453,-0.156 -0.199,-4.097 -0.441,0.152 0.074,1.223 -1.172,0.402 -0.707,-1.008 -0.414,0.141 z"
         style="fill:#ffffff;fill-opacity:1;fill-rule:nonzero;stroke:#ffffff;stroke-width:0.0311378;stroke-linecap:butt;stroke-linejoin:miter;stroke-miterlimit:4;stroke-dasharray:none;stroke-opacity:1"
         transform="scale(1.3333333,-1.3333333)"
         clip-path="url(#clipPath66)"
         id="path67" />
    </g>
    <g
       id="g69">
      <path
         d="m 46.027,-80.027 0.493,-0.121 0.777,-3.481 0.769,3.094 0.403,-0.102 -0.957,-3.832 -0.469,0.117 -0.797,3.489 -0.773,-3.094 -0.403,0.098 z"
         style="fill:#ffffff;fill-opacity:1;fill-rule:nonzero;stroke:#ffffff;stroke-width:0.0311378;stroke-linecap:butt;stroke-linejoin:miter;stroke-miterlimit:4;stroke-dasharray:none;stroke-opacity:1"
         transform="scale(1.3333333,-1.3333333)"
         clip-path="url(#clipPath68)"
         id="path69" />
    </g>
    <g
       id="g71">
      <path
         d="m 49.551,-84.359 c 0.14,-0.024 0.261,-0.024 0.359,0.004 0.172,0.043 0.328,0.156 0.461,0.335 0.109,0.141 0.199,0.336 0.274,0.575 0.043,0.14 0.078,0.277 0.097,0.402 0.074,0.484 0.055,0.871 -0.054,1.16 -0.11,0.289 -0.336,0.465 -0.676,0.516 l -0.746,0.113 -0.465,-2.988 z m -0.645,3.632 1.266,-0.195 c 0.43,-0.066 0.734,-0.308 0.91,-0.726 0.16,-0.379 0.195,-0.832 0.113,-1.372 -0.066,-0.414 -0.187,-0.777 -0.363,-1.093 -0.312,-0.555 -0.738,-0.793 -1.273,-0.711 l -1.258,0.195 z"
         style="fill:#ffffff;fill-opacity:1;fill-rule:nonzero;stroke:#ffffff;stroke-width:0.0311378;stroke-linecap:butt;stroke-linejoin:miter;stroke-miterlimit:4;stroke-dasharray:none;stroke-opacity:1"
         transform="scale(1.3333333,-1.3333333)"
         clip-path="url(#clipPath70)"
         id="path71" />
    </g>
    <g
       id="g73">
      <path
         d="m 52.949,-83.574 -0.344,1.773 -0.64,-1.695 z m -0.519,2.371 0.48,-0.035 0.828,-4.02 -0.465,0.039 -0.234,1.203 -1.234,0.098 -0.434,-1.152 -0.433,0.031 z"
         style="fill:#ffffff;fill-opacity:1;fill-rule:nonzero;stroke:#ffffff;stroke-width:0.0311378;stroke-linecap:butt;stroke-linejoin:miter;stroke-miterlimit:4;stroke-dasharray:none;stroke-opacity:1"
         transform="scale(1.3333333,-1.3333333)"
         clip-path="url(#clipPath72)"
         id="path73" />
    </g>
    <g
       id="g75">
      <path
         d="m 55.426,-83.121 c 0.195,0 0.351,0.051 0.465,0.148 0.113,0.102 0.171,0.282 0.171,0.539 0,0.282 -0.078,0.473 -0.238,0.575 -0.086,0.054 -0.195,0.082 -0.34,0.082 h -1.023 v -1.344 z m -1.403,1.809 h 1.454 c 0.238,0 0.433,-0.043 0.585,-0.133 0.297,-0.168 0.446,-0.477 0.446,-0.93 0,-0.238 -0.043,-0.434 -0.117,-0.582 -0.082,-0.152 -0.196,-0.27 -0.336,-0.363 0.125,-0.063 0.218,-0.145 0.281,-0.246 0.062,-0.102 0.098,-0.266 0.105,-0.496 l 0.016,-0.532 c 0.004,-0.152 0.016,-0.265 0.031,-0.34 0.024,-0.125 0.074,-0.207 0.137,-0.242 v -0.086 h -0.531 c -0.012,0.035 -0.024,0.078 -0.032,0.133 -0.007,0.055 -0.015,0.156 -0.023,0.313 l -0.035,0.66 c -0.008,0.258 -0.082,0.429 -0.223,0.519 -0.078,0.047 -0.203,0.071 -0.375,0.071 h -0.945 v -1.696 h -0.438 z"
         style="fill:#ffffff;fill-opacity:1;fill-rule:nonzero;stroke:#ffffff;stroke-width:0.0311378;stroke-linecap:butt;stroke-linejoin:miter;stroke-miterlimit:4;stroke-dasharray:none;stroke-opacity:1"
         transform="scale(1.3333333,-1.3333333)"
         clip-path="url(#clipPath74)"
         id="path75" />
    </g>
    <g
       id="g77">
      <path
         d="m 58.438,-84.664 c 0.14,0.008 0.257,0.039 0.347,0.086 0.156,0.082 0.281,0.226 0.367,0.437 0.071,0.164 0.114,0.375 0.129,0.625 0.008,0.149 0.004,0.289 -0.004,0.414 -0.043,0.485 -0.156,0.86 -0.332,1.114 -0.179,0.254 -0.437,0.367 -0.777,0.336 l -0.754,-0.067 0.27,-3.015 z m -1.497,3.371 1.274,0.113 c 0.433,0.035 0.785,-0.125 1.062,-0.488 0.239,-0.328 0.383,-0.762 0.434,-1.305 0.035,-0.414 0.008,-0.797 -0.09,-1.148 -0.168,-0.613 -0.519,-0.945 -1.062,-0.992 l -1.274,-0.114 z"
         style="fill:#ffffff;fill-opacity:1;fill-rule:nonzero;stroke:#ffffff;stroke-width:0.0311378;stroke-linecap:butt;stroke-linejoin:miter;stroke-miterlimit:4;stroke-dasharray:none;stroke-opacity:1"
         transform="scale(1.3333333,-1.3333333)"
         clip-path="url(#clipPath76)"
         id="path77" />
    </g>
    <g
       id="g79">
      <path
         d="M 63.637,83.418 C 63.719,83.055 63.715,82.66 63.621,82.23 63.523,81.777 63.359,81.434 63.117,81.195 62.879,80.957 62.609,80.871 62.301,80.938 62,81 61.785,81.191 61.656,81.508 c -0.133,0.312 -0.136,0.734 -0.023,1.269 0.09,0.426 0.25,0.77 0.472,1.028 0.227,0.257 0.524,0.347 0.887,0.265 0.344,-0.07 0.559,-0.289 0.645,-0.652 m -0.18,-2.531 c 0.266,0.297 0.457,0.715 0.57,1.246 0.121,0.578 0.118,1.078 -0.019,1.508 -0.16,0.504 -0.485,0.808 -0.961,0.91 -0.445,0.097 -0.84,-0.028 -1.176,-0.36 -0.309,-0.332 -0.527,-0.785 -0.652,-1.363 -0.11,-0.523 -0.11,-0.988 0.004,-1.402 0.144,-0.531 0.465,-0.848 0.957,-0.953 0.511,-0.11 0.937,0.027 1.277,0.414"
         style="fill:#ffffff;fill-opacity:1;fill-rule:nonzero;stroke:none"
         transform="scale(1.3333333)"
         clip-path="url(#clipPath78)"
         id="path79" />
    </g>
    <g
       id="g81">
      <path
         d="m 63.637,-83.418 c 0.082,0.363 0.078,0.758 -0.016,1.188 -0.098,0.453 -0.262,0.796 -0.504,1.035 -0.238,0.238 -0.508,0.324 -0.816,0.257 -0.301,-0.062 -0.516,-0.253 -0.645,-0.57 -0.133,-0.312 -0.136,-0.734 -0.023,-1.269 0.09,-0.426 0.25,-0.77 0.472,-1.028 0.227,-0.257 0.524,-0.347 0.887,-0.265 0.344,0.07 0.559,0.289 0.645,0.652 z m -0.18,2.531 c 0.266,-0.297 0.457,-0.715 0.57,-1.246 0.121,-0.578 0.118,-1.078 -0.019,-1.508 -0.16,-0.504 -0.485,-0.808 -0.961,-0.91 -0.445,-0.097 -0.84,0.028 -1.176,0.36 -0.309,0.332 -0.527,0.785 -0.652,1.363 -0.11,0.523 -0.11,0.988 0.004,1.402 0.144,0.531 0.465,0.848 0.957,0.953 0.511,0.11 0.937,-0.027 1.277,-0.414 z"
         style="fill:none;stroke:#ffffff;stroke-width:0.0311378;stroke-linecap:butt;stroke-linejoin:miter;stroke-miterlimit:4;stroke-dasharray:none;stroke-opacity:1"
         transform="scale(1.3333333,-1.3333333)"
         clip-path="url(#clipPath80)"
         id="path81" />
    </g>
    <g
       id="g83">
      <path
         d="m 63.859,-80.188 1.825,0.543 0.136,-0.464 -1.465,-0.438 0.34,-1.144 1.289,0.382 0.133,-0.445 -1.289,-0.383 0.516,-1.73 -0.36,-0.106 z"
         style="fill:#ffffff;fill-opacity:1;fill-rule:nonzero;stroke:#ffffff;stroke-width:0.0311378;stroke-linecap:butt;stroke-linejoin:miter;stroke-miterlimit:4;stroke-dasharray:none;stroke-opacity:1"
         transform="scale(1.3333333,-1.3333333)"
         clip-path="url(#clipPath82)"
         id="path83" />
    </g>
    <g
       id="g85">
      <path
         d="m 68.68,79.066 c -0.11,-0.011 -0.239,0.012 -0.387,0.075 l -0.773,0.32 0.527,1.258 0.773,-0.324 c 0.172,-0.075 0.297,-0.18 0.364,-0.321 0.07,-0.136 0.054,-0.324 -0.043,-0.562 -0.114,-0.266 -0.266,-0.414 -0.461,-0.446 m -1.735,0.133 1.297,-0.543 c 0.258,-0.105 0.504,-0.101 0.738,0.016 0.235,0.113 0.422,0.34 0.563,0.664 0.117,0.285 0.148,0.562 0.094,0.832 -0.055,0.27 -0.223,0.465 -0.516,0.586 l -0.898,0.379 0.64,1.539 -0.394,0.164 z"
         style="fill:#ffffff;fill-opacity:1;fill-rule:nonzero;stroke:none"
         transform="scale(1.3333333)"
         clip-path="url(#clipPath84)"
         id="path85" />
    </g>
    <g
       id="g87">
      <path
         d="m 68.68,-79.066 c -0.11,0.011 -0.239,-0.012 -0.387,-0.075 l -0.773,-0.32 0.527,-1.258 0.773,0.324 c 0.172,0.075 0.297,0.18 0.364,0.321 0.07,0.136 0.054,0.324 -0.043,0.562 -0.114,0.266 -0.266,0.414 -0.461,0.446 z m -1.735,-0.133 1.297,0.543 c 0.258,0.105 0.504,0.101 0.738,-0.016 0.235,-0.113 0.422,-0.34 0.563,-0.664 0.117,-0.285 0.148,-0.562 0.094,-0.832 -0.055,-0.27 -0.223,-0.465 -0.516,-0.586 l -0.898,-0.379 0.64,-1.539 -0.394,-0.164 z"
         style="fill:none;stroke:#ffffff;stroke-width:0.0311378;stroke-linecap:butt;stroke-linejoin:miter;stroke-miterlimit:4;stroke-dasharray:none;stroke-opacity:1"
         transform="scale(1.3333333,-1.3333333)"
         clip-path="url(#clipPath86)"
         id="path87" />
    </g>
    <g
       id="g89">
      <path
         d="m 69.785,-77.949 1.133,-2.168 c 0.133,-0.25 0.281,-0.442 0.445,-0.571 0.25,-0.195 0.512,-0.218 0.782,-0.078 0.328,0.176 0.476,0.426 0.453,0.762 -0.016,0.184 -0.09,0.402 -0.223,0.656 l -1.137,2.164 0.391,0.204 1.027,-1.965 c 0.227,-0.43 0.352,-0.789 0.379,-1.071 0.055,-0.511 -0.164,-0.89 -0.64,-1.144 -0.481,-0.25 -0.915,-0.207 -1.309,0.125 -0.215,0.183 -0.434,0.488 -0.66,0.918 l -1.028,1.969 z"
         style="fill:#ffffff;fill-opacity:1;fill-rule:nonzero;stroke:#ffffff;stroke-width:0.0311378;stroke-linecap:butt;stroke-linejoin:miter;stroke-miterlimit:4;stroke-dasharray:none;stroke-opacity:1"
         transform="scale(1.3333333,-1.3333333)"
         clip-path="url(#clipPath88)"
         id="path89" />
    </g>
    <g
       id="g91">
      <path
         d="m 74.172,-77.516 c 0.164,0.106 0.266,0.231 0.308,0.379 0.04,0.145 -0.007,0.328 -0.152,0.547 -0.152,0.235 -0.32,0.352 -0.508,0.352 -0.101,0 -0.211,-0.039 -0.332,-0.117 l -0.859,-0.555 0.73,-1.129 z m -2.16,0.762 1.218,0.785 c 0.2,0.129 0.387,0.199 0.567,0.207 0.34,0.02 0.633,-0.16 0.875,-0.543 0.129,-0.195 0.203,-0.383 0.215,-0.55 0.019,-0.168 -0.012,-0.333 -0.082,-0.489 0.14,0.016 0.261,-0.004 0.367,-0.054 0.109,-0.051 0.23,-0.172 0.363,-0.36 l 0.301,-0.441 c 0.082,-0.121 0.152,-0.211 0.211,-0.262 0.086,-0.094 0.168,-0.137 0.246,-0.129 l 0.047,-0.074 -0.449,-0.285 c -0.028,0.019 -0.063,0.047 -0.098,0.09 -0.039,0.043 -0.102,0.125 -0.188,0.254 l -0.386,0.531 c -0.149,0.215 -0.305,0.316 -0.473,0.316 -0.09,0 -0.211,-0.051 -0.351,-0.14 l -0.797,-0.512 0.918,-1.426 -0.368,-0.234 z"
         style="fill:#ffffff;fill-opacity:1;fill-rule:nonzero;stroke:#ffffff;stroke-width:0.0311378;stroke-linecap:butt;stroke-linejoin:miter;stroke-miterlimit:4;stroke-dasharray:none;stroke-opacity:1"
         transform="scale(1.3333333,-1.3333333)"
         clip-path="url(#clipPath90)"
         id="path91" />
    </g>
    <g
       id="g93">
      <path
         d="m 74.59,-75.031 0.414,0.308 2.344,-3.179 -0.414,-0.305 z"
         style="fill:#ffffff;fill-opacity:1;fill-rule:nonzero;stroke:#ffffff;stroke-width:0.0311378;stroke-linecap:butt;stroke-linejoin:miter;stroke-miterlimit:4;stroke-dasharray:none;stroke-opacity:1"
         transform="scale(1.3333333,-1.3333333)"
         clip-path="url(#clipPath92)"
         id="path93" />
    </g>
    <g
       id="g95">
      <path
         d="m 77.172,-72.984 0.301,-0.364 -0.805,-0.668 2.211,-2.672 -0.328,-0.269 -2.207,2.676 -0.809,-0.668 -0.301,0.363 z"
         style="fill:#ffffff;fill-opacity:1;fill-rule:nonzero;stroke:#ffffff;stroke-width:0.0311378;stroke-linecap:butt;stroke-linejoin:miter;stroke-miterlimit:4;stroke-dasharray:none;stroke-opacity:1"
         transform="scale(1.3333333,-1.3333333)"
         clip-path="url(#clipPath94)"
         id="path95" />
    </g>
    <g
       id="g97">
      <path
         d="m 77.098,-73.051 0.363,0.344 1.969,-0.731 -0.664,1.993 0.359,0.347 0.777,-2.523 1.102,-1.141 -0.309,-0.3 -1.101,1.144 z"
         style="fill:#ffffff;fill-opacity:1;fill-rule:nonzero;stroke:#ffffff;stroke-width:0.0311378;stroke-linecap:butt;stroke-linejoin:miter;stroke-miterlimit:4;stroke-dasharray:none;stroke-opacity:1"
         transform="scale(1.3333333,-1.3333333)"
         clip-path="url(#clipPath96)"
         id="path97" />
    </g>
    <g
       id="g99">
      <path
         d="m 82.176,48.438 c 0,-14.872 -12.051,-26.922 -26.918,-26.922 -14.871,0 -26.922,12.05 -26.922,26.922 0,14.867 12.051,26.917 26.922,26.917 14.867,0 26.918,-12.05 26.918,-26.917"
         style="fill:#ffffff;fill-opacity:1;fill-rule:evenodd;stroke:none"
         transform="scale(1.3333333)"
         clip-path="url(#clipPath98)"
         id="path99" />
    </g>
    <g
       id="g101">
      <path
         d="M 55.254,91.641 C 31.43,91.641 12.051,72.258 12.051,48.438 12.051,24.613 31.43,5.23 55.254,5.23 c 23.824,0 43.207,19.383 43.207,43.208 0,23.82 -19.383,43.203 -43.207,43.203 m 0,-87.496 c -24.418,0 -44.285,19.871 -44.285,44.289 0,24.421 19.867,44.293 44.285,44.293 24.422,0 44.289,-19.872 44.289,-44.293 0,-24.418 -19.867,-44.289 -44.289,-44.289"
         style="fill:#ffffff;fill-opacity:1;fill-rule:nonzero;stroke:none"
         transform="scale(1.3333333)"
         clip-path="url(#clipPath100)"
         id="path101" />
    </g>
    <g
       id="g103">
      <path
         d="m 64.117,52.457 c -1.172,-1.367 -2.508,-1.812 -2.929,-1.945 -0.426,-0.133 -2.051,-0.371 -2.626,-0.336 -0.574,0.031 -1.433,0.23 -1.605,0.594 -0.145,0.296 -0.301,0.71 -0.676,1.101 -0.289,0.305 -0.746,0.785 -1.086,1.352 -0.605,0.793 -0.793,1.789 -1.007,2.906 -0.2,1.035 -0.356,2.207 -0.891,3.109 l -0.211,0.348 -0.316,-0.254 c -0.344,-0.277 -0.497,-0.57 -0.672,-0.906 l -0.543,-0.899 c -2.93,-2.922 -4.36,-5.054 -5.856,-8.738 l -0.566,-1.656 0.019,-0.192 c 0.883,-1.023 1.332,-2.242 1.629,-3.578 0.082,-0.269 0.039,-0.578 -0.031,-0.82 -0.102,-0.34 -0.172,-0.746 0.004,-1.258 0,0 0.008,-0.262 0.016,-0.34 0.003,-0.078 -0.036,-0.383 -0.086,-0.476 -0.071,-0.141 -0.586,-0.828 -1.067,-1.266 -0.301,-0.273 -0.496,-0.316 -0.621,-0.394 L 44.668,38.75 44.527,38.566 c -0.265,-0.554 -0.621,-0.832 -1.007,-0.668 -0.403,0.172 -0.915,0.051 -1.055,-0.144 -0.11,-0.152 -0.352,-0.309 -0.563,-0.305 -0.371,0.008 -0.82,0.11 -0.976,0.262 -0.555,0.555 -0.871,0.699 -1.227,0.699 -0.219,0 -0.402,0.078 -0.558,0.309 L 38.973,39 h -0.235 c -0.5,0.02 -0.793,0.305 -0.933,0.484 l -0.172,0.309 -0.867,0.918 c -0.258,0.297 -0.907,1.309 -0.934,2.785 l 0.117,0.16 0.891,-0.261 1.23,-0.512 c 0.047,-0.047 0.715,-0.203 1.039,0.328 0.172,0.465 0.34,0.586 0.903,1.144 0.289,0.258 -2.223,1.915 -2.223,1.915 l -0.309,0.835 c 0.524,0.489 0.692,0.715 1.2,1.344 l 0.953,1.317 0.004,0.054 c 0.793,3.489 1.687,6.942 2.656,10.262 1.809,6.273 6.09,11.102 7.723,11.34 1.558,0.305 2.687,-0.094 4.406,-1.703 0,0 0.758,-0.617 1.394,-1.004 0.313,-0.192 1.676,-1.074 3.055,-2.172 1.32,-1.055 2.652,-2.316 3.262,-2.934 1.203,-1.218 2.179,-2.593 3.07,-3.933 0,0 0.281,-0.281 0.332,-1.43 0.039,-0.937 0.008,-1.848 -0.101,-2.422 -0.114,-0.57 -0.118,-1.969 -1.317,-3.367"
         style="fill:#fcd8c6;fill-opacity:1;fill-rule:nonzero;stroke:none"
         transform="scale(1.3333333)"
         clip-path="url(#clipPath102)"
         id="path103" />
    </g>
    <g
       id="g105">
      <path
         d="m 66.805,51.086 c -0.141,0.059 -0.063,0.199 -0.078,0.297 l -0.219,-0.215 c -0.059,0.074 -0.141,0.059 -0.215,0.059 v -0.293 c 0.215,0.277 0.727,-0.516 0.883,-0.063 l 0.14,-0.531 0.075,1.34 c -0.352,0 -0.391,-0.395 -0.586,-0.594 m -0.852,0.312 0.102,-0.464 0.109,0.457 z m -2.91,-3.375 c 0.273,-0.296 -0.023,-0.578 -0.16,-0.773 0.238,-0.043 0.336,0.238 0.512,0.371 l 0.082,0.516 c -0.141,0 -0.34,-0.055 -0.434,-0.114 m -2.66,-1.367 0.59,0.082 0.058,0.16 z m -0.531,0.516 c 0.394,-0.141 0.394,-0.336 0.828,-0.141 -0.356,0.039 -0.535,0.586 -0.828,0.141 m 8.351,4.43 c -0.285,0 -0.465,-0.059 -0.57,-0.176 -0.094,-0.102 -0.121,-0.246 -0.121,-0.41 0,-0.129 0.019,-0.27 0.039,-0.418 0.019,-0.149 0.039,-0.301 0.039,-0.442 0,-0.211 -0.047,-0.406 -0.195,-0.539 0,0.02 -0.153,0.129 -0.153,0.129 l -0.023,0.016 -0.035,-0.028 -0.258,-0.195 c -0.192,-0.105 -0.348,-0.191 -0.348,-0.465 v -0.008 l -0.004,0.008 c -0.027,0.176 -0.136,0.227 -0.219,0.238 l -0.035,0.004 -0.004,-0.058 -0.105,-0.692 c -0.059,0.082 -0.215,0.297 -0.215,0.297 0,0 -0.195,-0.355 -0.234,-0.433 -0.016,0.019 -0.063,0.078 -0.063,0.078 0,0 -0.285,-0.438 -0.289,-0.449 -0.004,0.003 -0.008,0.015 -0.008,0.015 v 0.008 c 0,0.066 -0.05,0.106 -0.097,0.137 l -0.039,0.027 -0.047,-0.016 c -0.063,-0.164 -0.188,-0.25 -0.313,-0.324 -0.164,-0.09 -0.32,-0.176 -0.332,-0.441 0.035,0.004 -0.086,0 -0.086,0 -0.066,0 -0.109,0.023 -0.125,0.078 -0.277,-0.039 -0.508,-0.242 -0.715,-0.422 l -0.316,-0.25 c 0.004,0.004 0.055,0.059 0.055,0.059 0.062,0.07 0.121,0.129 0.09,0.242 -0.313,-0.02 -0.665,-0.285 -0.973,-0.52 l -0.309,-0.222 0.192,0.008 c 0,0 0.058,0.003 0.121,0.003 l -0.324,-0.187 c -0.137,-0.106 -0.278,-0.211 -0.465,-0.203 -0.004,0 -0.098,0.015 -0.102,0.015 0.004,0 0.004,0.004 0.004,0.008 0,0.035 -0.055,0.203 -0.055,0.203 l -0.011,0.032 -0.051,-0.02 -0.274,-0.082 c -0.003,0 -0.277,-0.074 -0.285,-0.074 -0.031,0.012 -0.097,0.035 -0.203,0.074 0.028,0.008 0.301,0.086 0.301,0.086 0.18,0.035 0.316,0.086 0.398,0.23 l 0.032,0.055 -0.368,-0.027 c -0.316,-0.004 -0.675,-0.012 -0.878,-0.27 -0.118,0.188 -0.258,0.18 -0.391,0.172 l -0.094,-0.004 c -0.082,0 -0.172,0.016 -0.246,0.133 -0.047,0.008 -0.414,-0.047 -0.414,-0.047 -0.828,0.141 -1.582,0.692 -2.168,1.602 0.078,0.183 -0.066,0.351 -0.203,0.515 -0.137,0.153 -0.273,0.317 -0.246,0.504 0.308,0.336 0.629,0.387 0.871,0.395 h 0.109 c -0.004,0 0.305,-0.024 0.305,-0.024 L 58.098,49.5 h 0.222 c 0.25,0 0.387,0 0.637,0.371 0.012,-0.074 0.039,-0.09 0.09,-0.105 -0.008,0.004 0.125,-0.082 0.125,-0.082 0.016,-0.004 0.164,-0.051 0.164,-0.051 0,0 0.359,-0.086 0.359,-0.086 h 0.078 c 0.184,0.008 0.305,0.125 0.372,0.359 -0.02,-0.023 0.277,-0.082 0.277,-0.082 0.187,-0.008 0.34,0.09 0.504,0.192 -0.004,0 0.347,0.187 0.347,0.187 -0.027,-0.004 0.207,-0.09 0.207,-0.09 0.016,-0.004 0.29,0.047 0.29,0.047 l 0.234,0.047 c 0.121,-0.008 0.226,-0.051 0.273,-0.32 l 0.008,-0.055 0.047,0.027 c 0.191,0.118 0.297,0.309 0.391,0.508 0.093,0.195 0.191,0.391 0.379,0.504 0.136,-0.094 0.187,-0.215 0.242,-0.344 0,0 0.082,-0.179 0.082,-0.179 l 0.031,0.086 c 0.016,0.035 0.188,0.207 0.336,0.343 0.148,0.161 0.301,0.328 0.57,0.45 0,0.003 0,0.007 0,0.015 0,0.074 -0.062,0.27 -0.062,0.27 0,0.156 0.148,0.23 0.297,0.304 0.16,0.079 0.328,0.164 0.351,0.375 l 0.004,-0.003 c -0.004,0.003 0.133,-0.368 0.133,-0.368 l 0.019,-0.054 0.04,0.043 c 0.117,0.121 0.183,0.3 0.191,0.507 0,0 0.129,-0.207 0.129,-0.207 l 0.262,0.793 0.269,0.844 c 0,-0.004 0,-0.008 0,-0.008 0,0 -0.008,-0.222 -0.008,-0.222 0,0 -0.008,-0.168 -0.008,-0.168 l 0.063,-0.262 0.047,0.09 0.324,1.035 c 0,0.008 0.024,0.066 0.024,0.066 0.308,0.223 0.371,0.594 0.371,1.075 l -0.008,0.531 c 0,0.211 0.011,0.453 0.082,0.66 0.109,-0.441 0.137,-0.941 0.16,-1.422 0.027,-0.531 0.074,-1.09 0.23,-1.566 l 0.036,-0.086 0.031,0.086 0.07,0.554 -0.101,1.055 -0.114,1.133 c 0,0 0.039,0.531 0.039,0.535 0.004,0 0.008,-0.004 0.008,-0.004 0.137,-0.961 0.176,-2.012 0.215,-3.027 0,-0.008 0.074,-1.531 0.074,-1.531 0,0 0.11,0.093 0.16,0.136 -0.007,-0.039 -0.011,-0.082 -0.011,-0.121 0,-0.203 0.086,-0.39 0.226,-0.469 0.051,0.016 0.074,0.164 0.074,0.172 0.004,-0.004 0.004,-0.011 0.004,-0.011 0.012,-0.149 0.086,-0.231 0.219,-0.219 0.141,0.726 0.18,1.523 0.219,2.297 0,0.007 0.074,1.156 0.074,1.168 0,0 0,-0.008 0,-0.008 0.031,-0.453 0.063,-0.938 0.063,-1.418 0,-0.762 -0.079,-1.524 -0.356,-2.195 M 61.484,37.91 61.457,37.648 60.539,36.141 Z m -1.183,-1.914 -0.59,-1.262 c 0.254,0.414 0.73,0.766 0.629,1.328 z m 0.863,0.668 v -0.156 l -2.066,-3.684 -0.078,0.039 2.07,3.84 z m -2.57,-4.687 c 0.261,0.023 0.234,0.285 0.355,0.453 -0.238,0.05 -0.238,-0.309 -0.355,-0.453 m -0.973,-1.004 0.887,1.558 C 58.09,32.117 57.797,31.543 57.621,30.973 m -1.258,-0.215 -0.218,-0.375 0.281,0.23 v 0.16 z m 0.778,-0.793 v -0.16 l -0.188,-0.149 0.137,0.293 z m -1.059,-0.488 -0.555,-1.032 0.594,0.809 -0.027,0.105 z M 54.91,28.496 54.578,28.75 c 0.02,-0.012 0.137,0.195 0.227,0.312 0,-0.05 0,-0.105 0,-0.105 -0.004,-0.023 -0.004,-0.043 -0.004,-0.066 0,-0.055 0.015,-0.106 0.082,-0.125 l 0.023,-0.008 0.035,0.039 c 0.11,0.125 0.34,0.387 0.34,0.644 l -0.008,0.063 -0.019,0.07 c 0,0 -0.199,-0.152 -0.293,-0.219 0.18,0.715 0.605,1.36 1.016,1.985 0,0 0.257,0.398 0.386,0.598 -0.023,-0.336 -0.207,-0.618 -0.39,-0.891 -0.188,-0.285 -0.368,-0.551 -0.368,-0.863 v -0.075 l 0.059,0.036 c 0.274,0.218 0.43,0.546 0.563,0.863 0.207,0.48 0.382,0.898 0.941,0.851 L 56.953,31.441 C 56.816,31.195 56.66,30.914 56.652,30.645 v -0.098 l 0.063,0.074 c 0.246,0.277 0.426,0.609 0.59,0.93 0.175,0.336 0.355,0.683 0.613,0.98 l -0.172,-0.406 -0.187,-0.543 -0.012,-0.105 0.074,0.082 c 0.699,1.07 1.293,2.16 1.945,3.375 0.68,1.265 1.379,2.558 2.215,3.785 v -0.004 c 0,0.004 -0.058,-0.379 -0.058,-0.379 -0.145,-0.984 -0.313,-2.098 -0.852,-3.363 -0.512,-0.512 -0.883,-1.149 -1.273,-1.821 l -0.875,-1.375 c -0.008,-0.019 0,-0.382 0,-0.382 V 31.27 l 0.765,1.281 c 0.293,0.543 0.59,1.097 1.008,1.594 V 34.141 C 60.211,33.074 59.586,32.109 58.984,31.18 L 58.43,30.305 c 0,0.004 -2.016,-2.235 -2.016,-2.235 -0.543,-0.293 -1.078,0.106 -1.504,0.426 m 2.992,2.07 v -0.16 l -0.281,-0.32 0.215,0.453 z m -13.675,25.629 -0.465,0.602 0.222,-0.137 z m 0.14,0.465 -0.383,0.602 0.301,-0.301 z m -1.125,-0.465 c 0.465,-0.34 0.903,-1.105 1.207,-1.507 z m 1.504,-1.125 -1.281,1.508 0.058,0.059 1.289,-1.504 z m 0.066,0.582 0.301,-0.379 -0.062,-0.043 -0.305,0.36 z m -0.363,1.387 -0.304,0.606 0.222,-0.243 z m 0.418,-4.926 -0.039,-0.062 0.363,-0.383 0.063,0.062 z m -1.183,1.145 c -0.243,-0.117 -0.141,-0.32 0,-0.52 -0.34,0.36 -0.985,0.66 -1.207,1.203 l 0.543,-0.16 -0.383,0.766 c 0.543,-0.281 0.707,-0.863 1.047,-1.289 m -0.192,-1.285 -0.445,0.078 c 0.043,-0.219 0.324,-0.321 0.383,-0.543 -0.461,0.304 -1.028,0.707 -1.285,1.148 h 0.382 l -0.164,0.446 z m -0.332,3.699 c -0.262,-0.199 -0.16,-0.461 0,-0.742 l 0.082,-0.078 C 43.098,54.629 43,54.949 42.859,54.93 43,54.465 43.422,54.043 43.762,53.723 l -0.379,0.742 0.543,-0.223 c 0.301,0.465 -0.524,0.949 -0.766,1.43 m 0.199,-3.32 c -0.234,0.414 -0.531,0.769 -0.886,1.101 -0.059,-0.355 0.57,-0.726 0.886,-1.101 m 3.344,6.558 0.238,-0.601 -0.601,0.902 c 0.058,-0.074 0.18,-0.098 0.301,-0.137 l 0.062,0.301 0.543,-0.684 z m -0.828,-0.441 0.129,-0.078 0.519,-0.829 z m 0.906,-0.524 c -0.14,0.364 -0.484,0.703 -0.683,0.965 0.144,-0.359 0.343,-0.824 0.683,-0.965 m 0.16,-3.015 -0.543,0.66 0.243,-0.219 z m 0.524,4.664 h -0.078 l 0.218,-0.383 c 0.223,0.082 -0.179,0.223 -0.14,0.383 m -2.434,-7.098 0.446,-0.465 -0.043,-0.062 -0.461,0.465 z m 1.832,7.258 c 0.282,-0.238 0.481,-0.52 0.602,-0.844 -0.242,0.203 -0.602,0.649 -0.602,0.844 m -2.578,-1.746 c -0.058,-0.227 0.203,-0.563 0.461,-0.664 0,0.277 -0.379,0.422 -0.461,0.664 m 0.242,0.301 c -0.179,-0.204 0.285,-0.504 0.446,-0.664 0.039,0.136 -0.227,0.484 -0.446,0.664 m 0.828,-0.442 -0.464,0.602 0.058,0.039 0.465,-0.606 z m 1.348,-2.035 0.543,-0.602 0.039,0.043 -0.523,0.602 z m 0.762,-0.242 c -0.16,0.242 -0.301,0.465 -0.461,0.687 -0.184,-0.203 0.301,-0.445 0.461,-0.687 m -2.192,3.101 c 0.043,-0.222 0.524,-0.445 0.383,-0.605 -0.179,0.184 -0.527,0.465 -0.383,0.605 m 2.094,-2.214 0.461,-0.524 -0.062,-0.055 -0.461,0.54 z m 1.688,4.187 -0.243,0.52 -0.14,0.144 z m 2.406,9.645 0.305,0.382 0.058,-0.039 -0.301,-0.382 z m -0.359,0 0.359,0.464 -0.059,0.082 z m 1.867,-0.524 0.082,-0.078 -0.219,-0.219 z M 45.355,52.516 h 0.137 l -0.219,0.222 z m 7.313,17.351 0.164,0.141 -0.223,-0.141 z m -3.555,-8.461 -0.218,0.223 0.382,-0.664 z m -0.742,-0.984 -0.223,0.242 0.364,-0.769 z m -2.496,-7.305 -0.441,0.445 0.3,-0.14 z m -0.301,2.781 -0.219,0.239 0.219,-0.305 z M 71.82,52.832 c -0.105,0.633 -0.429,1.281 -0.308,1.914 h 0.16 c 0,-0.652 0.41,-1.242 0.148,-1.914 m -0.754,3.496 c -0.285,-0.078 -0.589,0.106 -0.609,0.313 0.203,-0.106 0.57,-0.106 0.609,-0.313 m -1.16,0.758 -0.468,0.48 0.324,0.051 z m -0.613,-2.195 -0.063,-1.094 -0.085,1.117 z m -0.77,0.828 h -0.148 v 0.457 h 0.148 z M 66.121,54.02 h -0.199 v 0.519 h 0.199 z m -1.598,3.996 c 0.079,-0.063 0.118,-0.18 0.215,-0.164 -0.078,-0.118 0.258,-0.528 -0.054,-0.668 0.015,0.652 -0.969,0.257 -0.891,0.968 -0.453,-0.336 -0.02,0.508 -0.531,0.371 -0.059,0.516 -0.414,0.711 -0.59,1.184 -0.082,-0.062 -0.117,-0.18 -0.219,-0.16 0.039,0.297 -0.039,0.551 -0.215,0.891 l -0.215,-0.063 c -0.101,0.137 -0.117,0.395 -0.375,0.297 l 0.079,0.433 c -0.176,-0.019 -0.395,0.055 -0.536,-0.078 l 0.082,0.297 c -0.214,0.293 -0.55,0.805 -0.886,0.742 l 0.078,0.379 c -0.492,0.293 -0.277,1.2 -0.965,1.18 0.297,0.199 0.633,0.238 0.965,0.352 l -0.153,-0.293 h 0.665 l -0.512,-0.43 c 0.18,-0.082 0.769,0.156 0.668,0.074 l -0.231,-0.234 0.883,0.078 c -0.277,-0.293 -0.707,-0.391 -0.945,-0.668 0.336,-0.141 0.73,0.277 1.023,0.234 l -0.672,-0.531 c 0.336,-0.059 0.75,0.375 1.125,0.238 l -0.668,-0.457 c 0.258,-0.273 0.375,0.219 0.668,0.078 l 0.059,-0.371 0.453,0.078 -0.453,-0.449 h 0.531 C 62.848,61.258 62.73,61.223 62.75,61.105 h 0.512 l -0.215,-0.296 c 0.43,-0.039 0.078,-0.176 0.293,-0.434 l 0.453,0.137 -0.156,-0.434 c 0.371,0.043 -0.117,-0.254 0.156,-0.371 0.156,0.02 0.395,0.277 0.512,0.078 l -0.512,-0.297 0.141,-0.156 0.074,0.082 c 0.433,0.094 0.199,-0.141 0.375,-0.375 l 0.301,0.078 c -0.122,-0.355 0.468,-0.75 -0.161,-1.101 m -4.058,6.339 C 60.27,64.117 59.953,63.883 59.582,63.977 L 59.5,64.434 c 0.039,0.214 0.258,0.273 0.453,0.296 V 64.434 Z M 59.582,62.957 59.5,63.172 h 0.219 c 0.039,-0.098 -0.102,-0.137 -0.137,-0.215 m -4.805,-3.918 0.215,0.215 -0.437,-0.512 z M 44.141,41.824 c -0.063,-0.277 -0.18,-0.531 -0.297,-0.808 v 0.672 l -0.375,-0.157 v 0.078 c 0.082,0.293 0.453,0.371 0.672,0.215 m 14.984,20.539 -0.648,-0.449 c 0.179,-0.219 0.335,0.117 0.589,0 l -0.375,-0.437 0.082,-0.075 c 0.274,0.055 0.668,0.196 0.809,0.215 l -0.891,-0.59 c 0.414,-0.082 0.809,0.297 1.262,0.375 -0.117,-0.418 -0.668,-0.375 -0.965,-0.668 0.258,-0.257 0.668,0.192 0.965,0.075 l -0.828,-0.59 c 0.434,-0.098 0.871,0.492 1.34,0.293 -0.395,-0.235 -0.906,-0.375 -1.18,-0.727 0.332,-0.019 0.828,0.293 1.18,0.293 l -0.668,-0.59 c 0.297,-0.097 0.629,0.157 0.965,0.219 l -0.45,-0.453 c 0.25,-0.055 0.59,0.098 0.879,0.16 L 60.312,58.66 c 0.235,0 0.665,0.297 0.879,0.164 l -0.289,-0.379 c 0.231,-0.175 0.532,0.356 0.746,0.078 l -0.457,-0.449 c 0.278,-0.179 0.594,0.332 0.832,0.078 l -0.375,-0.375 c 0.356,-0.316 0.61,0.274 0.883,0.157 -0.117,-0.2 -0.429,-0.274 -0.59,-0.512 h 0.59 C 62.59,57.105 62.18,57.184 62.16,56.891 l 0.668,0.078 c 0.02,-0.317 -0.355,-0.317 -0.512,-0.512 0.317,-0.258 0.532,0.141 0.809,0.215 0.078,-0.317 -0.711,-0.512 -0.672,-0.883 0.336,0.316 0.985,0.117 1.106,0.59 l 0.078,-0.078 c -0.176,-0.414 -1.024,-0.633 -0.965,-1.102 0.375,0.098 0.59,0.59 1.043,0.508 l -1.102,-1.102 c 0.098,0.004 0.196,0.036 0.289,0.079 0.36,0.171 0.707,0.574 1.106,0.73 -0.133,-0.273 -0.442,-0.504 -0.715,-0.73 l -0.031,-0.039 c -0.207,-0.168 -0.356,-0.293 -0.434,-0.473 0.317,0.039 0.559,0.351 0.828,0.512 0.133,0.082 0.278,0.125 0.43,0.082 l -0.055,-0.082 -0.039,-0.039 c -0.394,-0.497 -1.113,-0.715 -1.32,-1.223 l 0.887,0.375 c -0.18,-0.512 -0.985,-0.664 -1.106,-1.102 l 0.594,0.137 c -0.516,-0.43 -1.141,-0.629 -1.695,-0.965 0.375,-0.195 0.867,0.258 1.32,0.297 -0.414,-0.355 -0.926,-0.492 -1.399,-0.726 h 0.809 L 62.023,51.355 C 61.688,51.16 60.84,51.195 61.059,50.766 l -2.227,-0.219 c -0.199,0.078 -0.316,0.316 -0.512,0.078 v 0.355 c -0.218,0.098 -0.258,-0.214 -0.433,-0.214 l 0.136,0.375 c -0.156,0.273 -0.429,-0.352 -0.371,-0.079 l 0.157,0.293 c -0.082,0.161 -0.215,-0.019 -0.297,-0.078 v 0.453 c -0.141,0 -0.196,-0.16 -0.293,-0.214 l 0.078,0.429 -0.465,-0.324 -0.062,0.082 c 0.199,0.195 0.093,0.422 0.289,0.617 -0.274,0.18 -0.266,-0.218 -0.543,-0.359 -0.043,0.336 0.324,0.457 0.187,0.734 l -0.371,-0.238 c 0,0.238 0.293,0.418 0.137,0.594 l -0.356,-0.356 c 0.02,0.219 0.16,0.371 0.219,0.59 l -0.457,-0.152 c 0,0.215 0.32,0.406 0.156,0.59 -0.133,0.035 -0.273,-0.282 -0.293,-0.141 0.02,0.156 0.278,0.313 0,0.43 l -0.156,-0.133 c 0.281,0.312 0.063,0.559 -0.078,0.805 l -0.063,0.14 -0.093,-0.14 -0.356,-0.512 c -0.043,0.195 0.012,0.32 0.098,0.473 l 0.047,0.074 c 0.129,0.226 0.254,0.394 0.148,0.633 -0.215,-0.04 -0.293,-0.649 -0.351,-0.45 -0.434,0.332 0.156,0.848 0.058,1.18 -0.336,-0.059 -0.148,-0.371 -0.426,-0.469 0.079,0.356 0.344,0.645 0.129,0.922 l -0.246,-0.273 c -0.019,0.273 0.305,0.371 0.106,0.629 l -0.211,-0.086 0.351,0.617 c -0.531,0.176 0.239,0.609 0.082,0.887 l -0.515,-0.457 1.554,1.992 C 55.68,59.902 55.621,59.766 55.523,59.785 55.09,59.945 55.5,60.199 55.441,60.375 55.207,60.316 55.012,60.199 54.852,60 l 0.589,0.891 c -0.648,-0.414 -1.355,-1.086 -1.476,-1.852 l -0.078,0.078 0.078,0.082 c 0.101,0.348 0.555,0.844 0.082,1.176 l -0.082,-0.078 c -0.117,-0.02 -0.156,0.098 -0.215,0.141 l -0.453,-0.731 c -0.039,0.473 0.375,0.828 0.215,1.262 -0.215,-0.235 -0.297,-0.555 -0.43,-0.832 0.02,0.375 0.215,0.754 0.133,1.047 l -0.133,-0.157 v 0.297 c 0.395,0.449 -0.176,0.942 0.078,1.414 -0.18,0.02 -0.234,0.129 -0.242,0.258 l 0.004,0.051 c -0.012,0.172 0.043,0.328 0,0.422 h -0.059 c 0,0.59 -0.687,1.004 -0.746,1.633 -0.14,-0.551 0.254,-1.043 0.215,-1.633 -0.176,0.469 -0.215,0.984 -0.512,1.394 L 51.684,64.73 c 0.195,-0.355 0.195,-0.792 0.293,-1.183 l -0.454,0.668 c -0.136,-0.391 0.278,-0.805 0.161,-1.18 l -0.454,0.809 c -0.261,-0.297 0.258,-0.602 0.04,-0.848 l -0.04,-0.058 -0.023,0.058 -0.352,0.629 c -0.019,-0.199 0.032,-0.414 0.098,-0.629 0.067,-0.215 0.149,-0.426 0.199,-0.633 l -0.515,0.297 c 0.019,-0.316 0.234,-0.551 0.375,-0.805 -0.489,0.02 -0.473,0.747 -0.805,0.727 l 0.43,-1.023 -0.59,0.589 c -0.039,-0.039 -0.098,-0.082 -0.078,-0.16 l -0.352,0.516 c -0.14,-0.059 -0.062,-0.238 -0.082,-0.356 -0.176,-0.039 -0.375,-0.058 -0.512,-0.16 l 0.434,-0.664 0.078,0.078 c 0.02,0.157 -0.039,0.254 -0.078,0.371 l 0.293,-0.296 c 0.043,0.039 0.098,0.082 0.082,0.14 h 0.375 c 0.098,-0.258 0.57,-0.472 0.293,-0.808 l -0.16,0.16 c -0.074,0.015 -0.094,-0.043 -0.133,-0.078 0.059,-0.141 0.156,-0.278 0.133,-0.453 l -0.074,0.074 c -0.141,0.062 -0.2,-0.059 -0.297,-0.137 0.414,-0.313 -0.196,-0.488 0,-0.887 -0.571,0.141 -0.059,-0.449 -0.219,-0.531 l -0.133,0.16 c -0.316,-0.394 -0.277,-0.672 -0.672,-0.887 0,-0.238 -0.531,-0.335 -0.218,-0.593 l -0.293,-0.075 c -0.039,-0.218 0.312,-0.394 0.136,-0.593 -0.293,0.136 -0.336,0.691 -0.668,0.511 -0.039,-0.433 0.692,-0.648 0.59,-1.023 l -0.59,0.59 c -0.964,-0.098 0.512,-0.848 0.235,-1.399 -0.559,-0.093 -0.508,-0.605 -0.703,-0.964 l -0.145,-0.231 -0.34,0.231 -0.82,0.593 0.41,-0.593 0.258,-0.372 -0.461,0.372 -0.266,0.218 c -0.039,-0.078 -0.039,-0.148 -0.015,-0.218 0.097,-0.313 0.652,-0.563 0.605,-0.805 l -0.828,0.648 -0.059,-0.058 0.653,-0.887 c -0.434,0 -0.473,0.73 -0.891,0.59 0,-0.492 0.574,-0.57 0.832,-0.965 -0.199,-1.062 -0.73,0.434 -1.125,0.215 0.098,-0.332 0.512,-0.488 0.75,-0.805 0.391,-0.789 -0.75,-1.121 -0.457,-1.769 l -0.43,0.074 c -0.043,-0.117 0.098,-0.156 0.137,-0.234 l -0.215,-0.063 0.047,-0.094 0.016,-0.023 c 0.058,-0.129 0.105,-0.238 0.23,-0.336 -0.195,-0.016 -0.332,0.359 -0.511,0.16 0.019,-0.16 0.195,-0.258 0.296,-0.375 l -0.453,0.082 0.293,-0.535 c -0.136,-0.02 -0.234,0.316 -0.355,0.082 0.101,-0.16 0.414,-0.258 0.297,-0.516 -0.157,0.039 -0.258,0.239 -0.371,0 0.214,-0.527 -0.078,-0.882 -0.297,-1.258 l 0.136,-0.433 -0.511,-0.238 c 0.156,-0.473 1.043,0.043 1.261,-0.434 -0.078,0.02 -0.117,-0.039 -0.16,-0.078 l 0.305,-0.25 0.152,-0.121 c -0.031,-0.008 -0.058,-0.012 -0.082,-0.012 -0.031,-0.004 -0.062,-0.004 -0.09,0 -0.324,0.008 -0.691,0.125 -0.875,-0.207 l 0.083,-0.078 c 0.007,0.004 0.023,0.004 0.039,0.008 h 0.039 c 0.027,-0.004 0.05,-0.004 0.082,-0.004 h 0.039 c 0.035,0 0.07,0.023 0.093,0.074 0.024,-0.234 0.649,-0.195 0.375,-0.512 0.274,-0.156 0.786,-0.117 0.887,-0.453 -0.258,0.039 -0.492,0.278 -0.75,0.078 0.137,-0.371 0.649,-0.175 0.887,-0.429 L 45.477,44.641 C 45.438,44.562 45.5,44.539 45.535,44.48 h -0.133 c -0.039,-0.273 0.59,-0.332 0.883,-0.507 -0.867,-0.215 0.336,-0.258 0.297,-0.59 -0.199,0.015 -0.394,0.273 -0.59,0.074 l 0.59,-0.453 c -0.016,0 -0.027,-0.004 -0.039,0 -0.043,0 -0.09,0.012 -0.129,0.019 h -0.043 c -0.039,-0.007 -0.074,-0.027 -0.086,-0.074 l 0.297,-0.297 -0.215,-0.234 0.133,-0.141 c -0.273,-0.414 -0.117,-0.945 -0.074,-1.476 l -0.297,-0.078 c 0,-0.121 0.156,-0.2 0.238,-0.297 h -0.535 c 0.027,-0.067 0.266,-0.223 0.34,-0.266 -0.465,0.188 -0.707,-0.258 -0.988,-0.406 l 0.218,-0.211 c 0,-0.082 0.016,-0.18 -0.082,-0.219 l -0.375,0.297 -0.136,-0.297 c -0.43,0.02 -0.907,-0.551 -1.102,-0.965 l 0.137,-0.136 c 0.097,0.058 0.156,0.215 0.297,0.215 -0.153,-0.067 -0.278,-0.415 -0.52,-0.415 -0.047,-0.003 -0.098,0.008 -0.152,0.039 -0.352,0.258 -0.278,0.711 -0.293,1.106 0.195,0.941 1.179,1.355 1.769,1.77 0.082,0.355 -0.136,0.55 0.16,0.828 -0.074,0.16 -0.175,0.011 -0.269,0 -0.012,-0.004 -0.02,-0.004 -0.027,0 l 0.218,0.214 c -0.351,0 -0.195,0.438 -0.398,0.418 -0.031,-0.007 -0.07,-0.015 -0.113,-0.043 0.273,0.239 -0.317,0.2 0,0.434 l -0.297,0.16 0.136,0.133 c -0.492,0.102 0.04,0.418 -0.433,0.453 l 0.297,0.301 c -0.024,0.051 -0.059,0.066 -0.094,0.074 H 44.086 C 44.043,43.902 44,43.891 43.961,43.891 c -0.016,0 -0.027,0 -0.039,0 0,0.101 -0.02,0.179 0.078,0.238 -0.469,0.258 -1.102,0.312 -1.414,0.809 l 0.156,0.214 -1.105,0.75 0.652,-0.238 -0.691,0.711 h 0.015 c 0.176,-0.137 0.379,-0.285 0.582,-0.289 0.055,-0.004 0.114,0.004 0.172,0.031 l -0.297,0.258 -0.726,0.633 c 0.293,-0.199 0.629,-0.535 0.945,-0.457 l -0.594,0.59 0.672,-0.215 c -0.058,0.297 -0.375,0.277 -0.512,0.512 h 0.512 l -0.375,0.449 c 0.059,0.082 0.336,0 0.235,0.301 h 0.14 c 0.254,0.175 -0.179,0.253 -0.14,0.429 l 0.433,-0.058 c 0.098,0.175 -0.176,0.218 -0.137,0.355 l 0.297,0.078 -0.375,0.512 c 0.078,0.019 0.176,0 0.215,0.082 -0.098,0.055 -0.074,0.137 -0.074,0.215 0.117,0.039 0.293,-0.059 0.371,0.078 -0.098,0.16 -0.355,0.238 -0.297,0.453 0.125,0.055 0.133,0.121 0.094,0.199 -0.07,0.145 -0.305,0.324 -0.231,0.531 0.235,-0.019 0.375,-0.574 0.653,-0.296 -0.238,0.179 -0.258,0.429 -0.516,0.589 0.219,-0.078 0.418,-0.433 0.672,-0.214 -0.394,0.429 -0.863,1.16 -1.394,1.179 l 0.054,-0.218 c -0.668,0 0.356,-0.508 0.078,-0.825 l -0.433,0.239 c -0.254,-0.18 0.16,-0.278 0.136,-0.454 H 41.637 C 41.5,50.98 41.578,50.824 41.559,50.688 41.465,50.645 41.398,50.594 41.352,50.531 41.121,50.207 41.383,49.691 41.188,49.445 40.992,48.934 40.652,48.441 40.75,47.969 l -0.293,-0.157 c 0,-0.082 -0.019,-0.179 0.059,-0.218 -0.551,0.258 -1.102,0.711 -1.243,1.32 l 0.434,-0.355 c 0.238,0.199 -0.137,0.316 -0.137,0.511 l 0.434,-0.293 c 0.098,0.118 -0.102,0.293 -0.137,0.43 l 0.293,-0.055 c 0,0.2 -0.156,0.332 -0.234,0.512 0.926,-0.312 -0.219,0.492 0.156,0.805 h 0.137 l -0.02,0.062 c -0.094,0.328 0.262,0.473 -0.039,0.824 0.082,0.02 0.238,-0.062 0.297,0.083 -0.258,0.429 0.336,0.589 0,1.097 h 0.355 l -0.218,0.453 c 0.097,-0.074 0.156,-0.23 0.297,-0.23 0.156,0.191 -0.141,0.39 -0.215,0.59 l 0.429,-0.297 c 0.18,0.082 -0.015,0.195 0,0.297 l 0.239,0.074 -0.297,0.512 0.355,-0.055 c -0.297,0.273 -0.039,0.508 -0.136,0.805 0.355,0.238 0.113,0.476 -0.028,0.769 l 0.399,-0.336 c 0.117,0.278 -0.172,0.504 -0.25,0.778 l 0.386,-0.325 c 0.043,0.254 -0.273,0.551 -0.293,0.887 l 0.458,-0.219 -0.227,0.871 c 0.336,-0.234 0.043,-0.496 0.441,-0.652 0.157,0.492 -0.441,0.844 -0.3,1.254 0.175,-0.215 0.121,-0.586 0.437,-0.527 l -0.297,0.968 c 0.196,-0.199 0.317,-0.652 0.594,-0.59 l -0.359,0.883 0.359,-0.293 c 0.098,0.352 -0.316,0.672 -0.359,1.047 l 0.433,-0.457 c 0.117,0.317 -0.23,0.61 -0.215,0.965 l 0.375,-0.508 c 0.137,0.289 -0.234,0.547 -0.234,0.879 l 0.371,-0.156 -0.137,0.59 0.356,-0.434 c 0.039,0.434 -0.246,0.59 -0.285,1.082 l 0.363,-0.566 c 0.137,0.511 -0.231,0.742 -0.149,1.234 l 0.364,-0.723 c 0.16,0.551 -0.188,0.723 -0.145,1.317 l 0.52,-0.945 c -0.02,0.464 -0.164,0.675 -0.285,1.179 l -0.008,0.086 0.043,-0.066 0.547,-0.821 c 0,0.348 -0.133,0.743 -0.243,1.141 -0.05,0.184 -0.035,0.051 -0.066,0.234 0.121,-0.171 0.012,-0.125 0.195,-0.234 0,0 0.106,-0.113 0.114,0 0.027,0.234 0.16,0.008 0.281,0.02 0.031,0.004 0.062,0.023 0.094,0.078 -0.078,0.355 -0.161,0.691 -0.219,1.039 l 0.293,-0.371 0.062,0.082 c -0.062,0.289 -0.136,0.59 -0.214,0.886 l 0.371,-0.671 c 0.097,0.316 -0.18,0.867 -0.079,1.043 l 0.297,-0.372 c 0.196,0.215 -0.062,0.411 0,0.668 l 0.215,-0.296 c 0.196,0.277 -0.058,0.554 0,0.886 l 0.293,-0.453 c 0.16,0.18 0.043,0.418 0,0.594 l 0.238,-0.375 c 0.356,0.234 -0.078,0.508 0.059,0.824 l 0.16,-0.234 c 0.531,-0.02 0.317,0.668 0.375,1.047 0.117,-0.223 0.016,-0.575 0.293,-0.672 l 0.051,0.961 c 0.008,-0.196 0.086,-0.371 0.246,-0.453 l 0.059,1.343 c 0.199,-0.215 -0.059,-0.632 0.238,-0.808 l 0.137,0.808 c 0.078,-0.156 0.132,-0.297 0.214,-0.453 0.215,0.332 -0.097,0.606 0,0.965 l 0.375,-0.594 c 0.04,0.16 0.02,0.477 -0.078,0.672 0.059,-0.055 0.106,-0.074 0.145,-0.07 0.191,0.008 0.035,0.66 0.387,0.445 -0.356,0.863 0.664,0.906 0.921,1.418 l 0.083,-0.058 0.351,0.296 0.238,-0.238 c 0.098,0.297 0.235,0.277 0.43,0.238 0.098,0.02 0.207,0.036 0.324,0.043 h 0.18 c 0.73,-0.039 1.535,-0.343 2.039,-0.972 0.691,-0.157 0.277,-0.907 0.809,-1.317 0.011,-0.007 0.023,-0.007 0.039,-0.004 0.132,0.012 0.207,0.274 0.336,0.063 0.078,-0.18 -0.137,-0.242 -0.219,-0.356 0.258,-0.117 0.043,-0.277 0.082,-0.453 l 0.355,-0.078 -0.062,-0.219 h 0.512 l -0.157,-0.214 c 0.27,-0.223 0.442,-0.325 0.696,-0.309 0.039,0 0.086,0.004 0.132,0.016 l -0.156,-0.164 c 0.203,0 0.266,-0.344 0.445,-0.348 0.055,0 0.126,0.035 0.219,0.133 v -0.371 c 0.086,-0.067 0.246,-0.286 0.418,-0.293 0.055,-0.008 0.117,0.011 0.176,0.074 -0.316,-0.375 0.215,-0.414 0.297,-0.727 0.101,0.032 0.176,0.16 0.312,0.149 0.016,-0.004 0.039,-0.008 0.063,-0.016 -0.141,-0.312 -0.063,-0.527 -0.078,-0.805 l 0.508,-0.078 C 57.609,64.863 57.453,64.883 57.355,64.73 l 0.372,-0.16 c -0.098,-0.035 -0.075,-0.136 -0.075,-0.215 h 0.59 l -0.297,-0.378 c 0.028,-0.028 0.055,-0.055 0.106,-0.059 0.011,-0.004 0.031,-0.004 0.051,0.004 v -0.297 c 0.023,-0.008 0.043,-0.016 0.062,-0.016 0.18,-0.019 0.328,0.176 0.469,0.168 0.043,-0.004 0.094,-0.031 0.14,-0.093 l -0.531,-0.43 h 0.531 c -0.031,-0.16 -0.14,-0.211 -0.253,-0.258 -0.106,-0.043 -0.215,-0.086 -0.278,-0.199 0.156,-0.156 0.332,0.019 0.531,0 l -0.296,-0.512 c 0.214,0.024 0.492,0.277 0.648,0.078 M 39.199,48.477 40.457,47.141 c -0.414,-0.254 -0.078,-0.883 -0.672,-0.942 -0.019,-0.414 0.277,-0.828 0.434,-0.965 l -0.59,0.293 c -0.77,0.317 -1.473,1.039 -1.688,1.692 l 0.743,-0.727 c 0.019,0.395 -0.547,0.61 -0.504,1.098 0.058,-0.059 0.097,-0.176 0.215,-0.156 0.175,0.074 -0.02,0.195 0,0.293 l 0.293,0.078 c 0.039,0.14 -0.098,0.179 -0.079,0.297 l 0.297,-0.157 c 0.098,0.059 0.078,0.157 0.078,0.239 h 0.297 c 0.039,0.113 -0.097,0.171 -0.082,0.293 m -0.301,-5.094 -0.152,-0.219 c -0.691,0.098 -1.184,0.672 -1.836,0.809 -0.59,0.136 -0.883,0.965 -1.555,0.453 0.079,0.371 0.575,0.609 0.731,0.945 l 0.078,-0.433 c 0.887,-0.594 1.949,-0.887 2.734,-1.555 m -2.812,3.324 c -0.039,-0.098 -0.141,-0.078 -0.219,-0.078 0.141,0.078 -0.062,0.414 0.219,0.297 z m -1.402,-1.926 c 0.433,0.453 0.593,1.141 1.046,1.629 0,-0.332 -0.375,-0.586 -0.234,-0.883 l 0.531,0.672 -0.16,-0.535 c -0.195,-0.531 -0.769,-1.141 -1.398,-1.102 -0.157,0.137 -0.453,0.415 -0.219,0.672 0.988,0.176 0.848,1.395 1.48,1.907 -0.214,-0.829 -0.847,-1.516 -1.046,-2.36 m 1.261,-1.539 h 0.141 c 0.273,-0.293 1.16,-0.273 0.824,-0.887 0.278,0.079 0.278,-0.492 0.516,-0.078 L 37.5,41.902 c 0.891,0.336 1.422,1.082 2.367,1.34 0.375,0.043 0.375,-0.332 0.434,-0.59 -0.18,-0.906 -0.731,0.258 -1.106,-0.234 0.059,-0.297 0.141,-0.594 0.219,-0.887 h -0.219 v -0.297 l -0.449,0.078 0.152,-0.374 -0.668,0.234 0.161,-0.449 C 38.152,40.742 37.934,41 37.723,40.801 l 0.074,-0.16 -0.371,0.082 0.074,-0.375 -0.449,0.293 c -0.473,0.375 -0.574,0.984 -0.516,1.48 -0.097,-0.059 -0.176,-0.219 -0.293,-0.219 v 0.75 c -0.277,0 -0.078,0.512 -0.297,0.59 m 2.801,-2.953 c 0.961,0.336 1.496,1.277 1.633,2.129 0.039,0.461 0.273,0.562 0.543,0.574 H 41 c 0.133,-0.008 0.27,-0.023 0.391,-0.027 h 0.074 c 0.062,0 0.125,0.012 0.172,0.039 0.258,0 0.16,-0.293 0.301,-0.434 -0.184,-0.215 -0.141,-0.668 -0.536,-0.668 -0.078,0.196 0.137,0.258 0.078,0.453 -0.054,-0.046 -0.136,-0.074 -0.226,-0.074 H 41.16 c -0.195,0.012 -0.406,0.094 -0.484,0.215 l -0.082,-0.078 c -0.02,-0.516 0.57,-0.793 0.965,-0.949 0.043,-0.203 -0.071,-0.223 -0.2,-0.227 -0.101,-0.004 -0.203,0 -0.254,-0.07 0.059,-0.074 0.18,-0.113 0.161,-0.234 L 40.75,40.879 c 0,0.004 0.156,-0.168 0.219,-0.156 l -0.512,-0.082 v -0.055 c 0.059,-0.063 0.098,-0.18 0.219,-0.16 -0.024,-0.004 -0.043,-0.004 -0.063,-0.004 -0.148,0 -0.312,0.047 -0.394,-0.074 0.082,-0.118 0.219,-0.118 0.297,-0.219 h -0.59 l 0.156,-0.137 -0.512,-0.078 c 0.032,-0.031 0.047,-0.074 0.094,-0.082 0.012,0 0.027,0 0.043,0.004 l -0.59,-0.082 c 0.059,-0.027 0.098,-0.102 0.156,-0.125 l 0.063,-0.008 c -0.02,-0.008 -0.035,-0.008 -0.047,0 -0.008,0 -0.012,0.004 -0.016,0.008 l -0.527,0.066 0.234,-0.371 c -0.261,-0.015 -0.464,0.203 -0.679,0.188 -0.051,-0.008 -0.098,-0.02 -0.149,-0.051 0.039,-0.039 0.098,-0.059 0.078,-0.137 l -0.296,0.219 c -0.372,0.648 0.535,0.527 0.812,0.746 m 0.527,-1.262 c 1.067,0.395 2.325,1.145 2.665,2.364 0.214,-0.317 0.804,-0.434 1.097,-0.375 L 42.82,40.641 c -0.218,0.043 -0.39,0.277 -0.593,0.082 0.101,-0.239 0.375,-0.121 0.515,-0.297 l -0.59,-0.078 c 0.094,-0.059 0.157,-0.219 0.293,-0.219 l -0.453,-0.078 c -0.019,-0.156 0.176,-0.098 0.235,-0.215 l -0.59,-0.082 c 0.078,-0.176 0.258,-0.078 0.355,-0.211 -0.195,-0.023 -0.433,0.059 -0.59,-0.082 l 0.371,-0.215 -0.726,-0.078 c 0.058,-0.082 0.176,-0.098 0.297,-0.141 l -0.668,-0.078 c 0.074,-0.101 0.176,-0.117 0.293,-0.137 l -0.668,-0.082 0.293,-0.214 c -0.492,0.257 -1.399,-0.274 -1.321,0.511 m 1.539,-1.043 c 0.118,0.336 0.551,0.571 0.883,0.672 0.473,0.098 0.672,0.805 1.184,0.746 0.078,-0.355 -0.473,-0.59 -0.059,-0.886 -0.136,-0.036 -0.297,0.058 -0.375,-0.078 l 0.375,-0.297 h -0.828 l 0.297,-0.293 c -0.316,-0.176 -0.473,0.332 -0.73,0.078 l 0.296,-0.297 c -0.39,0 -0.691,0.234 -1.043,0.355 m 2.223,5.918 c -0.023,0 -0.039,0 -0.058,0 -0.047,0 -0.098,-0.004 -0.141,-0.004 h -0.07 c -0.071,0.004 -0.133,0.02 -0.18,0.075 0.184,0.047 0.293,-0.043 0.449,-0.071 m -1.097,1.036 -0.243,0.214 0.375,-0.214 z m 0.941,-0.672 c -0.652,0.039 -1.258,0.316 -1.691,0.746 z m -0.059,-2.797 -0.078,0.297 -0.219,-0.235 c -0.019,0.094 0,0.176 -0.078,0.235 -0.078,-0.059 -0.117,-0.176 -0.218,-0.157 0.082,0.254 -0.215,0.176 -0.289,0.293 0.093,0.375 0.332,0.868 0.882,0.668 0.434,-0.152 0.532,-0.668 0.356,-1.039 -0.141,0.035 -0.258,-0.019 -0.356,-0.062 m 3.09,-2.301 c 0.789,0.668 1.399,-0.555 2.07,-0.652 0.551,-0.473 1.594,-0.59 2.145,-1.258 2.305,-1.184 4.75,-2.328 7.012,-3.762 v -0.16 C 57.121,33.121 56.879,33.098 56.703,33.121 L 45.91,39.027 Z m 8.836,-8.566 0.156,0.218 0.09,-0.101 -0.16,-0.215 -0.055,0.035 z m -8.773,20.25 h 0.082 c 0.082,-0.043 0.062,-0.145 0.082,-0.227 z m 0.304,0.164 -0.222,0.222 h 0.144 c 0.102,-0.039 0.078,-0.14 0.078,-0.222 m 0.086,0.98 h 0.145 c 0.015,-0.101 0.285,-0.262 0.078,-0.305 z m 1.707,2.762 h 0.16 c 0.086,-0.102 0.184,-0.164 0.145,-0.309 -0.246,-0.101 -0.305,0.125 -0.305,0.309 m 0.532,0.535 c 0.058,-0.086 0.187,-0.129 0.164,-0.227 h -0.164 z m 0.316,0.613 h 0.18 c 0.214,-0.086 0.172,-0.41 0.148,-0.496 z m 0.543,-0.125 -0.395,0.574 h 0.153 c 0.179,-0.156 0.465,-0.441 0.242,-0.574 m 0.297,0.297 -0.219,0.512 0.027,-0.008 0.266,-0.207 z m -0.137,1.024 0.211,0.011 c 0.137,-0.215 0.281,-0.406 0.297,-0.664 -0.254,0.063 -0.41,0.414 -0.508,0.653 m 0.668,-0.219 -0.531,0.75 0.308,-0.156 z m 0.297,0.16 -0.59,1.019 0.289,-0.195 z m 0,0.887 h 0.141 l 0.074,-0.453 z m 7.891,-24.375 c 0.742,1.984 1.918,3.554 2.75,5.414 l 0.226,-0.094 z m 2.605,5.379 -1.973,-3.372 -0.199,0.083 1.953,3.453 0.09,-0.082 z m -0.555,-0.114 -0.808,-1.476 -0.188,0.035 -0.015,0.047 0.808,1.48 z m 2.813,-9.246 0.152,0.356 0.055,-0.094 0.012,-0.043 z m 9.926,25.785 c 0.316,0.817 -1.235,0.805 -0.426,1.536 -0.434,0.316 -0.953,0.421 -1.488,0.484 -0.633,0.633 -1.301,1.183 -2.29,0.965 -0.574,0.793 -1.402,1.504 -2.449,1.109 -0.136,-0.18 -0.297,-0.258 -0.511,-0.219 -0.196,0.325 -0.399,0.653 -0.61,0.969 -2.621,3.957 -6.617,7.274 -10.566,9.609 -1.52,1.426 -3.051,2.333 -4.961,1.958 -1.793,-0.258 -6.184,-5.25 -8.004,-11.567 -0.004,-0.008 -0.004,-0.015 -0.008,-0.023 -0.984,-3.375 -1.871,-6.809 -2.664,-10.282 -0.258,-0.41 -0.562,-0.824 -0.883,-1.226 -0.488,-0.602 -0.98,-1.137 -1.504,-1.625 -0.691,0.16 -1.359,1.008 -2.113,0.344 -0.531,-0.536 -0.926,-1.125 -0.969,-1.856 -0.215,-1.226 1.067,-1.5 1.778,-2.074 0.027,-1.57 0.707,-2.539 1.011,-2.891 0.586,-0.617 0.668,-0.785 0.938,-1.14 0.219,-0.274 0.683,-0.621 1.277,-0.645 1,-1.062 1.004,-0.148 2,-1.199 0.297,-0.316 1.461,-0.551 1.715,-0.145 0.527,0.93 1.512,-0.5 2.203,0.938 3.199,-1.563 6.219,-3.262 9.32,-5.059 -0.496,-1.363 -1.054,-2.785 -1.015,-4.281 l 6.023,-3.426 c 1.403,0.453 2.371,2.016 3.317,3.121 0.828,-0.89 1.601,0.254 2.015,0.887 0.317,0.574 0.551,1.184 0.676,1.875 l -0.73,0.531 c 0.507,1.582 1.035,3.243 1.25,5.02 -1.817,1.422 -4.051,2.168 -5.95,3.492 -1.757,-0.359 -2.867,-2.285 -3.777,-3.625 h -0.59 l -8.238,4.578 c -0.434,0.61 0.23,1.067 -0.008,1.828 -0.336,1.301 -0.683,2.571 -1.594,3.621 0.184,0.582 0.356,1.145 0.586,1.715 1.461,3.598 2.868,5.719 5.813,8.66 0.64,0.875 0.637,1.325 1.152,1.739 1.067,-1.797 0.762,-4.407 1.965,-5.965 0.977,-1.621 2.047,-1.746 1.496,-2.875 -0.461,-0.336 -0.539,-1.016 -0.402,-1.543 0.023,-0.094 0.058,-0.195 0.094,-0.277 0.769,-1.661 3.144,-2.129 3.441,-4.125 0.394,0.14 0.512,-0.352 0.887,-0.297 -0.395,0.257 -0.711,0.652 -0.887,1.05 l 0.215,0.055 c -0.176,0.238 -0.258,0.488 -0.098,0.649 0.906,0.296 1.738,0.062 2.684,0.242 1.523,0.039 2.39,1.636 3.851,1.777 0.317,-0.019 0.532,-0.238 0.891,-0.355 0.273,0.019 0.473,0.316 0.59,0.511 0.078,0.121 -0.696,-0.511 -0.461,0.063 l -0.223,-0.07 c 0.047,0.25 0.082,0.519 0.121,0.777 0.039,0.273 0.102,0.492 0.328,0.746 0.469,-0.023 0.383,0.742 0.821,0.582 0.039,0.613 1.211,0.312 0.836,1.082 -0.215,0.16 -0.602,0.023 -0.797,0.18 -0.098,-0.157 -0.051,-0.282 -0.231,-0.399 0.137,0.789 0.668,1.492 1.043,2.203 0.117,-0.429 -0.347,-0.898 -0.39,-1.375 l 0.593,0.727 -0.078,-0.625 c 0.469,0.934 1.031,0.062 1.399,0.926 0.097,0.258 -0.278,0.219 -0.317,0.386 l -0.218,-0.218 c -0.118,0.031 -0.036,0.168 -0.086,0.297 l -0.297,-0.512 c -0.422,0.305 -0.383,1.055 -0.266,1.586 l 0.039,-0.043 0.156,-0.512 c 0.141,0.438 0.079,0.711 0.297,0.985 0.078,-0.2 0.016,-0.504 0.153,-0.68 0.097,0.234 0.113,0.551 0.23,0.765 0.137,-0.019 0.227,-0.113 0.246,-0.253 l 0.008,-0.383 0.277,0.054 0.008,-0.355 h 0.254 c 0.18,-0.234 -0.074,-0.438 -0.094,-0.652 l 0.34,-0.079 c -0.515,-0.531 0.399,-0.675 0.024,-1.25 0.628,-0.16 0.41,-1.089 0.367,-1.66 -0.059,-0.218 -0.188,-0.699 -0.168,-0.953 0.621,1.774 0.672,4.012 0.34,5.594 l 0.394,-0.758 c 0.149,0.457 -0.265,0.754 0.067,0.91 l 0.296,-0.531 0.094,0.496 c 0.258,-0.398 0.36,-0.844 0.399,-1.34 0.418,0.699 -0.371,1.477 -0.118,1.907 z m -24.512,5 -0.305,0.606 -0.078,0.058 z m -0.383,-0.765 c -0.183,0.183 -0.246,0.543 -0.523,0.523 -0.34,-0.179 -0.063,-0.625 0.218,-0.824 l -0.16,0.461 z"
         style="fill:#18468b;fill-opacity:1;fill-rule:nonzero;stroke:none"
         transform="scale(1.3333333)"
         clip-path="url(#clipPath104)"
         id="path105" />
    </g>
    <g
       id="g107">
      <path
         d="m 65.621,61.141 h 1.422 v 0.265 h -0.559 v 1.489 h -0.308 v -1.489 h -0.555 z"
         style="fill:#18468b;fill-opacity:1;fill-rule:nonzero;stroke:none"
         transform="scale(1.3333333)"
         clip-path="url(#clipPath106)"
         id="path107" />
    </g>
    <g
       id="g109">
      <path
         d="m 67.242,61.141 h 0.434 l 0.484,1.371 h 0.004 l 0.473,-1.371 h 0.429 v 1.754 H 68.773 V 61.539 H 68.77 l -0.489,1.356 h -0.254 l -0.488,-1.356 h -0.004 v 1.356 h -0.293 z"
         style="fill:#18468b;fill-opacity:1;fill-rule:nonzero;stroke:none"
         transform="scale(1.3333333)"
         clip-path="url(#clipPath108)"
         id="path109" />
    </g>
  </g>
</svg>
