<svg viewBox="0 0 168.69 76.533" xmlns="http://www.w3.org/2000/svg" class="w-full h-full" fill="currentColor" stroke="none">
 <g transform="translate(-83.408 -7.3226)">
  <path d="m175.33 82.815c-20.949-2.3675-39.822-12.6-52.132-28.266-1.6644-2.1181-2.0842-2.504-2.0842-1.916 0 0.18274-0.87388 2.0894-1.9419 4.237-3.7055 7.4509-8.2855 12.451-15.059 16.442-2.0985 1.2362-6.5157 2.961-9.4143 3.676-2.692 0.664-9.1325 1.3925-9.4555 1.0696-0.15279-0.15279-0.19756-2.5413-0.11568-6.1718 0.11409-5.0589 0.23186-6.3834 0.80762-9.0832 1.1943-5.6 3.0393-9.9095 6.3825-14.908 1.3681-2.0453 1.5339-2.4201 1.2439-2.8122-6.2774-8.4903-8.5058-15.605-8.5058-27.156v-4.8272l2.6589 0.17918c3.2701 0.22036 7.0962 0.97246 10.173 1.9998 10.41 3.4755 17.678 10.407 22.341 21.307 0.5341 1.2484 1.0453 2.2698 1.136 2.2698 0.0907 0 0.63841-0.67121 1.2172-1.4916 2.5467-3.6098 7.9747-9.2084 12.146-12.528 9.1112-7.2506 19.658-12.235 31.204-14.748 17.684-3.8477 35.247-2.1705 51.162 4.8854 5.7035 2.5288 11.769 6.2518 16.732 10.27 2.9182 2.3627 8.5464 8.1037 10.802 11.018 2.0188 2.6089 5.5354 7.9273 5.786 8.7504 0.23058 0.75743-0.64271 2.485-2.8924 5.7218-4.9743 7.1569-10.407 12.925-15.9 16.882-11.934 8.597-22.821 13.02-36.836 14.966-4.1846 0.58103-15.211 0.71356-19.456 0.23386zm18.288-6.7275c4.2677-0.56587 7.1232-1.1142 9.7223-1.867 1.2097-0.35036 2.2384-0.676 2.286-0.72364 0.0477-0.04765-0.43008-1.1202-1.0616-2.3835-2.5141-5.0292-4.2218-10.255-5.2862-16.175-0.57889-3.2201-0.67831-4.5267-0.69093-9.0793-0.0261-9.395 1.5804-16.556 5.5784-24.868 0.84847-1.7638 1.5072-3.232 1.4638-3.2627-0.86627-0.61213-7.831-2.0658-12.445-2.5975-4.1677-0.48027-13.462-0.56108-17.077-0.14848-10.676 1.2185-19.853 4.0745-27.934 8.6942-9.7988 5.6013-15.84 11.081-22.202 20.14l-1.2073 1.719 1.3154 1.9128c5.5699 8.099 14.234 15.799 23.168 20.59 8.9539 4.802 17.697 7.4494 27.773 8.4098 3.5664 0.33993 12.833 0.13858 16.598-0.36065zm22.622-6.7337c4.078-2.0475 8.7968-4.897 11.361-6.8604 5.4817-4.1974 11.947-11.035 14.647-15.489 0.87475-1.4433 0.87749-1.4578 0.43229-2.2845-0.24642-0.45757-1.145-1.7601-1.9968-2.8945-5.9585-7.9349-13.126-14.071-22.032-18.863-2.1282-1.145-5.9588-2.785-6.505-2.785-0.39925 0-3.9723 7.5615-4.8955 10.36-1.3866 4.2034-2.0884 8.2303-2.2632 12.987-0.23368 6.3584 0.41557 11.06 2.3301 16.873 1.2659 3.8439 4.4756 10.883 4.9624 10.883 0.0669 0 1.8488-0.86718 3.9598-1.9271zm2.5411-24.358c-3.9309-1.7994-4.8064-6.9739-1.6327-9.6499 1.3274-1.1192 2.4537-1.486 4.2181-1.3737 2.9398 0.1872 4.9803 2.2789 5.2506 5.3824 0.10765 1.2361 0.0173 1.6516-0.6237 2.8678-1.0773 2.0442-2.3872 2.895-4.6601 3.0267-1.1564 0.06706-2.0449-0.02118-2.5522-0.25342zm-123.09 24.826c6.4804-2.0826 11.819-6.1673 15.515-11.871 1.2383-1.9109 3.5818-6.7292 4.9562-10.19l0.8413-2.1186-1.3432-3.1993c-0.73875-1.7596-1.9205-4.3504-2.6261-5.7573-3.4117-6.8028-7.3985-10.749-14.088-13.944-2.8349-1.3542-7.0033-2.5721-7.3736-2.1543-0.30415 0.34306 0.37499 5.2411 1.1481 8.2803 1.3078 5.1411 3.4818 9.168 7.4429 13.786l2.5271 2.9466-2.1184 2.399c-2.74 3.1029-4.6173 5.9999-6.0431 9.3256-1.6928 3.9486-2.9889 9.4482-2.9889 12.682 0 1.2043-0.20074 1.2132 4.1505-0.18515z" fill="currentColor" stroke="none"/>
 </g>
</svg>