<svg viewBox="0 0 143.66 145.64" xmlns="http://www.w3.org/2000/svg" class="w-full h-full" fill="currentColor" stroke="none">
 <g transform="translate(29.304 -65.266)">
  <path d="m20.683 209.12c0-0.0723 0.65926-1.2649 1.465-2.6501 0.80576-1.3852 2.2736-3.973 3.2618-5.7505 0.98823-1.7775 2.816-5.0352 4.0617-7.2394 1.2457-2.2041 4.0381-7.2652 6.2052-11.247 2.1671-3.9817 4.2677-7.7807 4.668-8.4423s0.66983-1.2609 0.59898-1.3317c-0.07085-0.0709-0.55727 4e-3 -1.0809 0.16562-0.57606 0.17814-2.9945 0.29566-6.1231 0.29753-5.5269 3e-3 -7.2741-0.23781-11.635-1.6056-7.4917-2.35-14.698-8.1002-18.805-15.006-2.1521-3.6181-4.1346-9.5826-4.5031-13.548l-0.16438-1.7688h22.067l-0.07261 3.1394-0.0726 3.1394-7.0343-0.0302c-3.8689-0.0166-7.0884 0.0574-7.1545 0.16432-0.23421 0.37896 1.471 3.8349 3.1331 6.3497 3.2315 4.8895 7.6217 8.5091 13.136 10.831 4.0206 1.6926 6.4337 2.0899 11.752 1.9348 3.3109-0.0965 4.7292-0.25204 6.3345-0.69441 9.8343-2.71 17.242-9.7712 19.888-18.958 0.3594-1.2477 0.73066-3.022 0.825-3.9429 0.19911-1.9434-0.07593-1.8451 3.8135-1.3636 1.6572 0.20517 2.5966 0.43735 2.6833 0.66319 0.22369 0.58295-0.4356 4.1798-1.2648 6.9-1.4946 4.9033-4.1002 9.349-7.7 13.138-2.046 2.1535-6.354 5.6555-8.0117 6.5127-0.53395 0.27612-1.1196 1.1242-2.1002 3.0409-1.0136 1.9814-6.6032 12.02-7.9456 14.27-0.24608 0.41241 5.269-0.0728 8.6962-0.76513 8.1752-1.6514 15.932-5.27 22.288-10.397 3.4232-2.7616 7.9582-7.6935 10.303-11.205 4.9763-7.4517 7.8424-15.225 8.8082-23.891 0.14497-1.3007 0.26028-9.2974 0.26148-18.131 2e-3 -12.331 0.07319-15.861 0.32531-16.064 0.17775-0.14257 1.923-1.0978 3.8782-2.1226 1.9553-1.0249 3.5551-1.9429 3.5551-2.04 0-0.0971-1.6724-1.0847-3.7163-2.1945-3.827-2.078-4.2985-2.5161-4.2989-3.9949-3.23e-4 -1.1061-1.4167-3.8092-2.7338-5.2172-4.1843-4.4733-11.57-4.585-16.486-0.2494-1.8875 1.6646-2.9914 3.3199-5.8746 8.8092-3.9349 7.4915-7.0066 13.249-7.2236 13.54-0.23356 0.31297-8.75 16.764-10.139 19.585l-0.98652 2.0038h-48.787l-0.18129-2.7794c-0.25688-3.9383-0.7901-6.0234-2.2927-8.9651-2.0925-4.0967-5.5051-7.3402-9.7897-9.3045-2.0019-0.91778-5.7403-1.9619-7.0244-1.9619h-0.76208l0.17886 2.0038c0.31432 3.5215 0.89177 5.78 2.1318 8.3382 1.0342 2.1335 1.5176 2.779 3.6785 4.9124 1.8103 1.7872 3.0156 2.7314 4.4255 3.4665 1.0657 0.55565 1.9788 1.0428 2.0291 1.0826 0.19898 0.15722-1.8324 5.7929-2.0881 5.7929-0.15032 0-1.6823-0.5378-3.4044-1.1951-2.0101-0.76723-3.7096-1.2427-4.747-1.3281-1.5836-0.13039-1.6159-0.12024-1.6159 0.50825 0 0.81212 0.76984 3.0618 1.6258 4.7509 1.9318 3.8123 5.5312 6.7192 10.203 8.24 0.74657 0.24304 1.3574 0.58633 1.3574 0.76287 0 0.17655-0.16497 0.83619-0.36658 1.4659-0.20162 0.62969-0.5666 1.8139-0.81104 2.6316-0.5303 1.7738-0.713 1.8159-3.5255 0.81221-3.2504-1.16-5.322-2.4055-7.6217-4.5824-5.1213-4.8478-7.842-11.152-7.842-18.17v-2.6862h2.3269c1.3553 0 2.3269-0.10635 2.3269-0.25467 0-0.14007-0.34106-0.80906-0.75791-1.4866-1.0865-1.7661-2.5339-5.2563-3.1844-7.6787-0.49556-1.8454-0.5613-2.7698-0.57118-8.0321l-0.01114-5.9466 2.0684-0.0828c2.8365-0.11349 7.1292 0.3611 10.113 1.1181 7.3218 1.8573 14.2 7.4091 17.617 14.219 0.85338 1.7009 1.97 5.0623 2.2546 6.7869l0.1813 1.0988h38.88l1.1188-2.2623c1.5442-3.1224 12.089-23.22 15.146-28.868l2.5055-4.6287-0.83989-2.4814c-0.74998-2.2158-0.84114-2.7997-0.85155-5.4548-0.01915-4.8709 1.3565-8.2513 4.7435-11.657 3.4651-3.484 7.1665-5.0253 12.034-5.0111 4.0453 0.01173 7.0316 0.96878 10.103 3.2376 4.3904 3.2434 6.9326 8.5366 6.8201 14.201-0.0429 2.1634-0.0212 2.2467 1.2166 4.659 0.69318 1.3509 1.3849 2.8053 1.5371 3.2319 0.23802 0.66711 1.2323 1.3054 7.1057 4.5613 8.43 4.6732 8.5068 4.7172 8.504 4.8758-9.8e-4 0.0711-1.9493 1.1498-4.3291 2.3972-2.3797 1.2473-5.7812 3.0713-7.5587 4.0532l-3.2319 1.7853-0.03068 14.692c-0.02531 12.13-0.10591 15.255-0.46231 17.924-1.9795 14.821-9.9028 28.625-21.733 37.862-6.1049 4.7671-14.465 8.9348-21.017 10.477-0.74656 0.17572-1.3574 0.43612-1.3574 0.57864 0 0.14253 1.2994 2.7487 2.8876 5.7916l2.8876 5.5324 3.1236 0.0474c1.718 0.0261 3.7345 0.029 4.481 7e-3l1.3574-0.0408v6.4505l-13.057-8e-3 -4.2413-8.4237-4.2413-8.4237-0.76811 0.15362c-0.42246 0.0845-2.4191 0.15363-4.437 0.15363h-3.6689l-2.6979 4.8396c-1.4838 2.6618-2.7359 4.9282-2.7824 5.0366-0.04642 0.10835 2.455 0.22839 5.5588 0.26674l5.6433 0.0698 0.07261 3.1672 0.07261 3.1672h-11.255c-6.1902 0-11.255-0.0592-11.255-0.13152zm47.794-124.97c1.4177-1.1068 4.0834-2.4925 6.1131-3.178 1.5836-0.53477 2.2785-0.60952 5.5588-0.59792 3.7382 0.01319 4.4247 0.13749 7.0842 1.2823 0.43732 0.18827 0.47144 0.12885 0.31121-0.54208-0.67229-2.8151-2.8702-5.4483-5.7178-6.8502-1.7021-0.83793-1.9381-0.88392-4.5161-0.88012-2.4983 0.0039-2.8448 0.06674-4.2479 0.77307-3.1242 1.5727-5.1537 4.1862-5.8481 7.5308-0.27437 1.3216-0.17137 3.1975 0.17554 3.1975 0.07974 0 0.56894-0.33097 1.0871-0.73548zm-48.699 104.71c-3.7506-1.5137-5.6871-2.4784-8.7738-4.3706-5.3929-3.3061-11.28-8.3872-14.916-12.873-1.6659-2.0556-4.8814-6.8095-4.8783-7.2121 9.77e-4 -0.1486 0.43748-0.50817 0.96956-0.79905 0.53208-0.29088 1.744-0.96496 2.693-1.498l1.7256-0.96909 2.1505 3.1785c3.6184 5.3483 9.7825 11.142 15.599 14.661 2.2818 1.3806 6.3795 3.3514 8.9818 4.3198 1.1005 0.40951 2.0022 0.88419 2.0038 1.0548 0.0039 0.44555-2.122 5.7663-2.3025 5.7624-0.08296-2e-3 -1.5471-0.56671-3.2535-1.2554zm59.627-88.383c-1.333-0.6567-1.8908-1.7348-1.7662-3.4141 0.09019-1.2167 0.22705-1.5129 1.0448-2.2623 2.3894-2.1897 6.2151-0.15086 5.7816 3.0812-0.33461 2.4947-2.7498 3.7334-5.0602 2.5952z" fill="currentColor" stroke="none"/>
 </g>
</svg>