<svg viewBox="0 0 131.1 145.71" xmlns="http://www.w3.org/2000/svg" class="w-full h-full" fill="currentColor" stroke="none">
 <g transform="translate(-282.9 112.8)">
  <path d="m336.37 32.785c-0.0825-0.0825-0.14801-6.0536-0.14548-13.269 5e-3 -14 0.0857-15.078 1.3692-18.278 2.483-6.1905 7.9743-11.124 14.157-12.718 1.9484-0.50241 3.0634-0.53745 19.923-0.62609l17.859-0.0939v-50.459h-28.84l-0.1323 16.801-0.13229 16.801-0.73248 2.0706c-0.97446 2.7547-1.5877 3.9291-3.1801 6.0906-2.4347 3.3047-6.3116 6.184-9.9805 7.4121-3.6944 1.2367-4.2043 1.2596-25.794 1.1616-22.871-0.10389-21.308 0.0262-25.929-2.1592-2.7939-1.3213-5.8993-3.7086-7.4548-5.7311-1.5267-1.9851-3.0873-5.134-3.8284-7.7248l-0.62307-2.1782v-39.952l0.73086-2.3303c0.87647-2.7946 1.726-4.5398 3.2446-6.6655 3.1094-4.3524 8.4122-7.5264 13.884-8.3101 0.94588-0.13548 9.2137-0.25593 18.373-0.26768 13.008-0.0167 16.701-0.0937 16.871-0.35199 0.11985-0.18185 0.18639-5.8373 0.14785-12.568l-0.0701-12.237 6.7469 2.6e-4v15.29c0 17.012-0.0166 16.825 1.7905 20.264 1.4877 2.831 3.6657 5.0035 6.2557 6.2396 1.1772 0.56182 2.7712 1.1513 3.5424 1.3099 0.93077 0.19146 7.4023 0.28842 19.251 0.28842 17.672 0 17.861 6e-3 19.051 0.56472 1.2108 0.56914 2.0198 1.4363 2.9288 3.1394 0.47159 0.88358 0.49781 2.1379 0.57178 27.354 0.055 18.735-9e-3 26.843-0.21835 27.853-0.36844 1.7748-1.5858 3.4169-3.1419 4.2382l-1.1661 0.61547-17.884 5e-3c-14.554 4e-3 -18.219 0.0756-19.684 0.3861-4.7686 1.0104-9.0569 4.9784-10.856 10.045-0.18478 0.52037-0.3382 5.671-0.42997 14.435l-0.14267 13.626-3.0911 0.0398c-1.7001 0.0219-3.1586-0.0277-3.2412-0.11024zm7.2583-52.311c4.7215-1.4568 8.1688-4.8526 9.7793-9.6332 0.51936-1.5417 0.53949-2.1992 0.53949-17.625 0-12.588-0.0709-16.046-0.33073-16.127-0.1819-0.0565-1.3428-0.41466-2.5797-0.796-7.3642-2.2703-12.9-8.5231-14.65-16.547l-0.14424-0.66146-17.408 0.0134c-19.271 0.0148-18.718-0.0296-22.123 1.7766-3.2703 1.7351-6.4348 6.2215-7.0421 9.984-0.17337 1.074-0.27837 8.2566-0.27962 19.127-2e-3 14.861 0.0594 17.706 0.41743 19.447 1.2542 6.098 6.2172 10.714 12.279 11.421 0.80147 0.0934 10.149 0.14736 20.772 0.11992 17.327-0.0447 19.464-0.0961 20.77-0.49887zm-39.059-11.274c-0.96873-0.28085-2.7773-1.9566-3.4585-3.2044-0.44348-0.81239-0.47696-1.9138-0.47696-15.69 0-14.544 0.0103-14.839 0.56164-16.031 0.73821-1.596 2.2272-3.056 3.4683-3.4006 0.62693-0.1741 5.4758-0.27747 13.06-0.2784 11.169-1e-3 12.214 0.0374 14.116 0.52381 2.6959 0.6895 4.6519 1.8306 6.7814 3.9564 1.9852 1.9817 2.9058 3.678 3.6962 6.8104 0.51402 2.0373 0.54128 2.7808 0.46577 12.7-0.0781 10.258-0.0955 10.565-0.65994 11.619-0.74941 1.4005-2.1862 2.6514-3.4479 3.0018-1.25 0.34712-32.907 0.34063-34.106-7e-3zm31.535-6.9595c0.0873-0.34782 0.11934-4.7234 0.0712-9.7234l-0.0875-9.091-0.69315-1.4781c-0.84404-1.7998-2.2903-3.295-3.9134-4.0457-1.1685-0.54048-1.6419-0.56463-12.568-0.6411-7.0081-0.049-11.413 0.0171-11.509 0.17293-0.0859 0.13881-0.12409 5.9193-0.0849 12.846l0.0712 12.593h28.555zm17.963 70.114c-0.0746-0.30656-0.10238-5.3794-0.0617-11.273 0.0718-10.402 0.0907-10.747 0.6451-11.774 0.3141-0.58209 0.90941-1.3794 1.3229-1.7719 1.6623-1.5777 1.1051-1.5354 20.235-1.5354 11.462 0 18.117-0.10021 19.257-0.28992 5.4239-0.90298 10.152-5.2019 11.509-10.464 0.37087-1.4384 0.41915-5.2038 0.41915-32.687 0-34.416 0.096-32.444-1.7518-35.961-1.1336-2.1572-2.9228-4.0846-5.095-5.4886-2.9911-1.9333-2.6696-1.9062-23.448-1.9696l-18.521-0.0564-1.4085-0.78025c-0.77469-0.42914-1.6502-1.1197-1.9457-1.5346-1.1882-1.6687-1.2695-2.7252-1.2729-16.537l-3e-3 -13.031h6.6146v12.149c0 6.6821 0.0723 12.338 0.1606 12.568 0.14403 0.37534 1.8432 0.41872 16.47 0.42052 8.9703 1e-3 17.282 0.11379 18.47 0.2504 8.8615 1.019 16.109 7.6846 17.927 16.488 0.36694 1.7764 0.41717 5.7848 0.41257 32.924-3e-3 19.327-0.10508 31.592-0.27179 32.746-0.1466 1.0144-0.60401 2.8235-1.0165 4.0201-2.4493 7.1058-9.1036 12.472-16.83 13.573-1.0711 0.15256-8.9092 0.26602-18.587 0.26905l-16.735 5e-3v20.288l-3.1795 4e-3c-3.0156 4e-3 -3.1865-0.0244-3.3152-0.55303z" fill="currentColor" stroke="none"/>
 </g>
</svg>