<svg viewBox="0 0 156.56 125.09" xmlns="http://www.w3.org/2000/svg" class="w-full h-full" fill="currentColor" stroke="none">
 <g transform="translate(-382.65 178.68)">
  <path d="m386.43-57.054c-1.1723-1.1784-2.1314-2.2901-2.1314-2.4705s5.8659-6.2387 13.035-13.463c12.777-12.875 27.563-27.878 32.665-33.143 1.4146-1.4601 2.696-2.6586 2.8474-2.6633 0.1514-5e-3 5.55 5.3276 11.997 11.85l11.722 11.858 3.6527-3.7556c2.009-2.0656 6.8166-6.9608 10.684-10.878 3.867-3.9175 9.5364-9.6871 12.599-12.821 19.057-19.506 30.136-30.692 30.394-30.689 0.16341 2e-3 2.3951 2.0989 4.9592 4.6605 4.1976 4.1934 4.6803 4.5996 4.8442 4.0763 0.10017-0.31963 0.77509-4.0195 1.4998-8.2219 1.298-7.5266 1.6526-9.5493 3.473-19.814 1.1432-6.4462 1.1739-6.7508 0.67268-6.6772-0.39156 0.0575-5.5487 1.1514-10.101 2.1426-2.4112 0.52499-6.5826 1.4063-18.001 3.8031-3.134 0.65786-5.751 1.2415-5.8156 1.297-0.0646 0.0555 2.0325 2.2532 4.6601 4.8837l4.7775 4.7828-8.6982 8.7409c-8.4155 8.4568-19.588 19.798-30.026 30.48-5.9465 6.0854-9.3817 9.4681-9.6172 9.4702-0.0933 8.3e-4 -5.4304-5.3308-11.86-11.848l-11.691-11.85-3.9163 4.0146c-20.555 21.071-40.125 40.923-40.342 40.923-0.37419 0-4.4298-3.9909-4.3616-4.292 0.0426-0.18792 2.1143-2.4169 4.6037-4.9533 9.2017-9.3753 34.223-34.808 39.061-39.703l4.9952-5.0544 23.599 23.799 2.6307-2.7046c5.7806-5.943 17.628-17.982 26.825-27.259l9.7059-9.7908-6.5778-6.5816c-3.6178-3.6199-6.5172-6.6423-6.4431-6.7164 0.22485-0.22485 19.989-4.5435 42.708-9.332 2.208-0.46539 5.7892-1.2333 7.958-1.7064s4.0237-0.77988 4.1218-0.68175c0.0981 0.0981-0.13423 1.9562-0.51638 4.129-0.38214 2.1728-1.7935 10.186-3.1364 17.807-1.3429 7.6213-2.8633 16.363-3.3788 19.426-0.51543 3.0628-1.2794 7.4604-1.6977 9.7726-0.41831 2.3122-0.76056 4.4324-0.76056 4.7116s-0.0951 0.56647-0.21139 0.63832c-0.11626 0.0719-3.2341-2.8931-6.9284-6.5888-3.6944-3.6957-6.8415-6.7197-6.9935-6.72-0.15205-3.7e-4 -2.3592 2.1264-4.9048 4.7262-2.5456 2.5998-7.4372 7.5825-10.87 11.073-3.433 3.4901-11.127 11.357-17.097 17.483-5.9702 6.1255-13.929 14.226-17.687 18.001l-6.8326 6.8637-23.555-23.824-2.513 2.5851c-1.3822 1.4218-10.128 10.302-19.435 19.733-9.3072 9.4312-17.123 17.358-17.367 17.615-0.24481 0.25712-1.4903 1.4875-2.7677 2.7341l-2.3226 2.2666z" fill="currentColor" stroke="none"/>
 </g>
</svg>