<svg viewBox="0 0 113.41 145.9" xmlns="http://www.w3.org/2000/svg" class="w-full h-full" fill="currentColor" stroke="none">
 <g transform="translate(-181.83 20.988)">
  <path d="m237.69 124.8c-0.83614-0.26101-6.4475-3.0748-9.6224-4.8251-3.1126-1.7159-10.008-6.2778-12.772-8.4497-5.3451-4.2004-12.285-10.87-16.764-16.112-2.6137-3.0585-7.1018-9.7204-9.0906-13.494-3.563-6.76-5.9923-14.532-7.0709-22.622-0.2231-1.6734-0.35054-10.653-0.42868-30.208l-0.11121-27.826 1.4054-0.13721c0.77297-0.0755 2.8937-0.27073 4.7127-0.43392 11.837-1.0619 22.776-4.5031 34.578-10.878 3.6266-1.9589 10.249-6.3268 13.6-8.9707l2.3268-1.8354 2.0885 1.5486c2.9541 2.1903 9.5264 6.5464 12.494 8.2806 8.5515 4.9981 20.492 9.4079 29.898 11.042 3.0318 0.52674 7.699 1.026 10.716 1.1464l1.5875 0.0633-2e-3 28.178c-2e-3 27.993-5e-3 28.203-0.60121 31.948-1.9395 12.192-7.5112 23.926-16.491 34.727-2.4826 2.9864-9.8617 10.42-12.672 12.765-2.5122 2.0966-8.513 6.5193-11.152 8.2189-5.0218 3.2347-13.365 7.5955-15.177 7.9328-0.43538 0.081-1.0893 0.0544-1.4531-0.0591zm7.9943-10.499c8.4391-4.8419 17.538-11.931 23.908-18.627 4.6082-4.8441 8.4652-10.128 11.683-16.004 2.5314-4.6232 3.8164-7.7418 5.2129-12.652 2.2076-7.7619 2.1345-6.569 2.1345-34.834v-24.997l-2.9104-0.34118c-7.2643-0.85157-17.306-3.5215-24.599-6.5406-5.6306-2.3308-12.718-6.2527-18.763-10.383-3.1212-2.1324-3.7593-2.4715-4.2333-2.2494-0.30699 0.14379-1.9274 1.2381-3.6009 2.4318-10.314 7.3572-23.007 13.025-34.34 15.334-3.877 0.78991-9.422 1.6033-10.93 1.6033h-0.79264l0.0971 25.069c0.0925 23.873 0.12326 25.227 0.64578 28.377 0.9972 6.0106 2.5942 10.895 5.4931 16.801 7.1995 14.668 22.208 29.158 40.176 38.788l3.7518 2.0109 1.7766-0.88504c0.97711-0.48677 3.3584-1.7926 5.2917-2.9018zm-13.418-22.316c-6.8762-1.2331-12.266-3.4247-17.427-7.086-3.0469-2.1616-8.4438-7.6249-10.424-10.552-3.1751-4.6937-5.4972-10.193-6.5948-15.619-0.72968-3.607-0.65951-12.265 0.12799-15.792 3.2268-14.452 12.682-25.509 26.315-30.774 4.4974-1.7369 8.8262-2.4898 14.353-2.4964 10.113-0.0121 18.645 3.1068 26.652 9.7423 6.1272 5.0777 10.885 12.47 13 20.198 1.3169 4.8115 1.6084 6.978 1.5812 11.755-0.0271 4.7666-0.74925 9.091-2.2534 13.494-4.4245 12.951-15.964 23.379-29.323 26.498-5.3732 1.2547-11.245 1.4869-16.007 0.63297zm13.997-5.165c6.9443-1.5642 12.813-4.8162 17.89-9.9124 9.943-9.9817 13.305-24.206 8.8624-37.496-2.7973-8.3676-9.043-15.948-16.705-20.275-1.9931-1.1256-6.4474-2.8857-9.1009-3.5962-5.9991-1.6063-13.117-1.3639-19.308 0.65739-2.8296 0.92376-8.5417 3.8239-10.716 5.4405-4.3936 3.2672-8.75 8.4776-11.234 13.436-3.353 6.6936-4.6056 14.981-3.3015 21.842 2.4138 12.701 9.9657 22.272 21.938 27.804 1.8786 0.86799 6.0801 2.0518 8.8418 2.4912 2.2196 0.35318 10.674 0.0956 12.834-0.39107zm-17.833-7.4351c-4.6542-0.78797-7.1511-2.0043-10.154-4.9463-1.7304-1.6955-2.4542-2.6443-3.275-4.2932-1.202-2.4145-1.9183-4.9946-1.9146-6.8961 5e-3 -2.7628 2.31-5.767 5.0474-6.58 1.7502-0.51975 2.4828-0.52036 4.0002-3e-3 1.9995 0.68129 3.2494 1.9798 4.568 4.7458 0.72962 1.5304 1.454 2.6587 1.9138 2.9811 0.73293 0.51382 2.6432 1.2023 4.1852 1.5083 1.1639 0.231 3.3015 1.9501 4.1684 3.3523 2.0911 3.3823 0.58241 7.8822-3.2044 9.5573-1.1873 0.5252-3.9001 0.81709-5.3354 0.57409zm3.9688-5.403c0.60792-0.60792 0.73007-2.4143 0.19338-2.8597-0.18469-0.15327-1.167-0.48154-2.1828-0.72948-2.4071-0.5875-4.662-1.7832-5.8566-3.1054-0.52643-0.58269-1.3715-1.9639-1.8779-3.0694-1.1015-2.4045-1.5303-2.936-2.3688-2.936-0.89712 0-2.1275 0.694-2.3231 1.3104-0.20555 0.64763 0.54457 3.7493 1.2508 5.1719 2.0524 4.1344 6.176 6.7281 10.718 6.7413 1.5702 5e-3 2.0142-0.0904 2.4474-0.52359zm13.581 4.6392c-1.4134-0.61115-1.8599-2.2764-0.96221-3.5882 0.62269-0.90992 0.87117-1.0424 1.964-1.047 1.9443-8e-3 3.1351 1.9275 2.2448 3.6492-0.37583 0.72678-0.68793 0.9208-2.0107 1.25-0.21828 0.0543-0.77445-0.0645-1.2359-0.26404zm9.1937-7.4409c-0.65875-0.5543-0.81405-0.88653-0.81405-1.7415 0-0.96513 0.19229-1.2564 2.2223-3.3666 4.6382-4.8214 6.3286-8.8047 6.6146-15.587 0.11298-2.6793 0.37587-3.238 1.7487-3.7166 1.086-0.37859 2.4156 0.34802 2.8339 1.5486 0.74312 2.1332-0.36908 9.3296-2.0553 13.299-1.0806 2.5436-2.0878 3.937-4.9835 6.8944-3.4842 3.5585-4.1379-5.5666 2.6697zm-15.631-10.346c-4.3835-0.73296-7.9853-3.6293-9.7107-7.8088-0.99385-2.4075-1.1649-6.5269-0.36858-8.8771 1.8586-5.4853 6.7811-9.0682 12.442-9.0565 3.8479 8e-3 6.2648 0.97638 9.0488 3.6258 4.001 3.8076 5.091 10.165 2.6186 15.272-0.92138 1.9033-3.7651 4.7734-5.6473 5.6995-2.2855 1.1246-5.7085 1.5921-8.3832 1.1449zm5.3565-5.371c1.6092-0.60208 3.2634-2.1648 4.2038-3.9713 0.89292-1.7153 0.89178-5.168-2e-3 -6.8792-0.90293-1.7282-2.9673-3.5817-4.5892-4.1204-1.7664-0.58671-4.1177-0.54585-5.5581 0.0966-1.7354 0.774-3.7469 2.7409-4.4322 4.3341-0.50041 1.1632-0.57693 1.7241-0.47933 3.5135 0.071 1.3014 0.29436 2.4698 0.57451 3.005 1.0257 1.9596 3.07 3.6533 5.1909 4.3008 1.2711 0.38805 3.6584 0.25714 5.0919-0.27921zm-34.619-4.8709c-1.1719-1.1719-1.2131-2.2672-0.12619-3.3541 1.4149-1.4149 3.6475-0.77149 4.1406 1.1933 0.36124 1.4393-0.98743 3.0604-2.5461 3.0604-0.31282 0-0.97358-0.40482-1.4684-0.89959zm7.0176-11.251c-1.0032-1.0032-0.99345-1.776 0.0629-4.9616 0.76421-2.3046 0.94608-2.6088 2.1106-3.5292 0.70087-0.554 2.0218-1.256 2.9354-1.56 1.6377-0.54501 1.6694-0.57417 2.2556-2.0741 0.78066-1.9975 2.3256-3.5884 4.1463-4.2696 0.87678-0.32805 2.7868-0.65915 4.9339-0.85528l3.5032-0.32002 0.7806 0.87364c0.6535 0.7314 0.75572 1.027 0.62779 1.8153-0.084 0.5179-0.43805 1.2269-0.78669 1.5755-0.55992 0.55993-0.99639 0.66285-3.7411 0.88218-3.9402 0.31486-4.4273 0.56255-5.4928 2.7931-0.95592 2.0012-1.9793 2.872-4.4218 3.7626-1.9557 0.71309-2.3734 1.2853-2.6671 3.654-0.17986 1.4503-0.35517 1.9076-0.91626 2.3902-1.012 0.87047-2.3547 0.79928-3.3305-0.17658zm37.571-6.6146c-1.493-1.493-0.70943-3.8276 1.3971-4.163 0.84667-0.13478 1.0895-0.0464 1.7859 0.65004 0.59082 0.59082 0.80602 1.0529 0.80602 1.7308 0 1.2902-0.21471 1.7224-1.0773 2.1684-1.1538 0.59665-2.0474 0.4781-2.9118-0.38631z" fill="currentColor" stroke="none"/>
 </g>
</svg>