<svg viewBox="0 0 160.36 146.95" xmlns="http://www.w3.org/2000/svg" class="w-full h-full" fill="currentColor">
 <g transform="translate(-9.8193 -16.526)">
  <path d="m85.022 162.67c-5.3058-1.1063-10.228-4.2072-12.632-7.9569-1.2263-1.9132-1.1908-1.8881-2.9222-2.069-2.1582-0.22558-4.2114-1.0386-6.5168-2.5806-3.7264-2.4924-6.0204-6.587-6.7478-12.045-0.74774-5.6097 0.94856-12.115 4.5419-17.419l1.0634-1.5695-1.1594-1.0492c-6.2858-5.6882-9.2114-9.3774-12.256-15.455-2.9399-5.8684-4.5601-12.144-4.8673-18.854-0.1459-3.1862-0.24294-3.8287-0.57255-3.7907-0.21828 0.0252-1.2303 0.23719-2.249 0.47115-2.9238 0.67153-8.2648 0.81782-11.188 0.30644-7.0267-1.2291-13.072-5.0833-17.743-11.312-2.1142-2.8193-1.9852-3.8566 0.80335-6.4624 5.8364-5.4538 12.481-8.6274 21.381-10.212 1.2586-0.22412 4.1197-0.35335 7.8231-0.35335h5.8387l-0.76071-0.79375c-1.2302-1.2836-4.0856-5.6954-5.0625-7.8219-1.1411-2.4838-2.1088-5.5593-2.8442-9.0391-0.45038-2.131-0.58033-3.6898-0.60159-7.2161-0.046-7.6368 0.41552-9.3847 2.6872-10.176 1.0369-0.36123 1.1875-0.34864 2.301 0.19234 1.087 0.52808 1.3109 0.81734 2.5528 3.297 4.7521 9.488 11.354 15.613 20.287 18.822l1.9263 0.69192 2.5094-1.0444c3.5278-1.4682 6.9243-2.5175 10.451-3.2286 2.6187-0.52802 3.8218-0.61107 8.8515-0.61107 4.9698 0 6.2474 0.0862 8.7385 0.58944 3.3726 0.68137 7.6019 2.0055 10.816 3.3863 2.0471 0.87942 2.3278 0.93695 3.1876 0.65322 2.6738-0.88244 6.0879-2.5858 8.7154-4.3483 5.5047-3.6925 8.9672-7.7302 12.271-14.309 0.73073-1.4552 1.6088-2.9058 1.9512-3.2235 2.1207-1.9677 5.2237-0.81409 5.6494 2.1003 0.92878 6.3582 0.36725 13.795-1.4549 19.267-1.2177 3.6569-3.8646 8.5644-6.439 11.939l-0.66717 0.87439 4.8734-0.0913c5.3439-0.10015 8.0062 0.15608 12.385 1.192 4.9134 1.1625 8.7552 2.9159 13.264 6.0538 5.4961 3.8251 7.2436 6.1292 6.1758 8.1427-1.1231 2.1177-4.0998 5.3678-7.4549 8.1396-0.12143 0.10032 0.79076 1.6231 2.0271 3.3839 1.2363 1.7608 2.4441 3.7153 2.6839 4.3432 0.38141 0.99871 0.42577 2.3164 0.35416 10.521-0.0928 10.634-0.12563 10.82-2.0016 11.369-0.6693 0.19575-4.6238 0.26341-12.191 0.2086l-11.201-0.0811-1.5437-1.7281v-19.925l0.8111-1.4372c0.44611-0.79046 0.77353-1.4633 0.72761-1.4952-0.0459-0.0319-0.97647-0.25349-2.0679-0.49242s-2.2452-0.51049-2.564-0.60347c-0.57436-0.16752-0.57975-0.13863-0.59225 3.1766-0.0332 8.8097-2.6238 17.037-7.8268 24.856-2.4777 3.7235-5.4809 6.9664-9.7769 10.557l-0.78395 0.65521 1.079 1.4204c2.2869 3.0106 3.7626 6.4728 4.4576 10.458 1.9447 11.152-3.785 20.621-13.116 21.677-1.1964 0.13536-1.6952 0.32115-1.9871 0.7402-2.0234 2.9047-2.88 3.8557-4.7403 5.2622-2.267 1.714-4.5164 2.8567-7.276 3.6962-2.2416 0.68191-8.8187 0.88529-11.377 0.35183zm9.0899-6.6554c0.89413-0.23007 2.3401-0.75814 3.2132-1.1735 1.7146-0.81561 3.9248-2.5492 3.7045-2.9056-0.0747-0.12081-1.4501-0.53392-3.0565-0.91803-5.8687-1.4033-10.857-1.3952-16.321 0.0264-1.7408 0.45289-2.7151 0.83355-2.7151 1.0608 0 0.45984 2.1234 2.0222 3.9356 2.8957 2.8971 1.3965 7.9738 1.8546 11.24 1.0142zm-16.288-10.834c6.0528-1.3594 8.5342-1.7104 12.093-1.7104 3.5475-6e-5 5.7864 0.32281 11.774 1.698 6.5078 1.4946 9.5118 1.2626 11.999-0.92689 1.5128-1.3316 2.3932-2.8494 3.0703-5.2928 2.2324-8.0558-2.5232-16.911-11.974-22.297-6.1951-3.5304-15.409-4.573-22.836-2.5839-3.967 1.0624-5.8566 1.8898-8.858 3.8785-6.339 4.2002-9.9982 9.8414-10.457 16.121-0.34634 4.7428 1.6616 9.4594 4.6832 11.001 2.5685 1.3103 5.0528 1.337 10.504 0.11259zm25.058-7.5073c-5.4199-0.97645-6.6754-8.1378-1.9062-10.873 2.5268-1.4491 5.4939-0.90606 7.4342 1.3607 3.5126 4.1036-0.18958 10.474-5.528 9.5122zm-29.526-0.63639c-2.117-1.1081-3.4901-3.9785-3.0431-6.3613 0.29478-1.5713 1.6932-3.3472 3.1814-4.0402 4.0448-1.8835 8.3916 0.78588 8.4181 5.1695 0.0216 3.578-2.1882 5.8424-5.7016 5.8424-1.2503 0-1.9915-0.15848-2.8548-0.6104zm-5.2019-25.253c3.2006-4.4549 5.403-9.528 6.7126-15.462 0.62453-2.8296 0.71964-3.8488 0.72383-7.7556 4e-3 -4.0885-0.061-4.7388-0.71895-7.1438-1.7344-6.3404-4.736-10.887-9.9577-15.083-2.8475-2.2883-8.2636-5.1289-9.1388-4.7931-0.56923 0.21843-3.2489 6.02-4.0566 8.7828-1.3598 4.6511-1.7109 7.5284-1.5437 12.65 0.11471 3.5129 0.29531 5.1517 0.80521 7.3067 1.5788 6.6724 4.6468 12.729 8.9497 17.667 1.894 2.1736 5.9488 5.8807 6.4324 5.8807 0.17534 0 0.98173-0.92274 1.792-2.0505zm-7.3435-22.241c-1.1634-0.54381-2.6601-2.0938-3.0781-3.1879-0.38232-1.0006-0.31819-3.5398 0.11557-4.576 0.41556-0.99271 2.248-2.7606 3.2604-3.1455 1.015-0.38589 3.4414-0.3014 4.5415 0.15814 4.1416 1.73 4.7498 7.696 1.0503 10.303-0.94684 0.66721-1.4156 0.80391-2.9764 0.86802-1.3801 0.0567-2.1231-0.0504-2.9132-0.41966zm55.433 22.334c6.5687-5.7215 11.211-13.823 13.133-22.919 0.64765-3.065 0.6592-10.504 0.0217-13.942-0.61874-3.3369-2.0848-7.5971-3.7587-10.922-1.6539-3.2855-1.4922-3.2402-5.0774-1.423-6.2256 3.1555-11.444 8.4448-13.768 13.954-2.9257 6.9371-3.3226 13.053-1.3664 21.052 0.93341 3.817 1.9039 6.3977 3.5891 9.5436 1.6097 3.005 4.1463 6.5547 4.7131 6.5955 0.14587 0.0105 1.277-0.86215 2.5135-1.9392zm-2.5683-22.649c-1.7556-1.0068-2.7235-2.5726-2.9025-4.6953-0.10972-1.3008-0.0197-1.7323 0.6204-2.975 1.0539-2.046 2.4725-2.9858 4.7233-3.1291 4.3473-0.27682 7.3105 3.3978 6.0803 7.5403-1.0696 3.6016-5.182 5.1745-8.5215 3.2592zm-34.177 18.64c2.1203-0.75209 7.0381-1.4416 10.246-1.4366 3.4878 5e-3 7.4988 0.51825 10.209 1.3051 1.0091 0.29298 1.8858 0.48169 1.9481 0.41936 0.0623-0.0623-0.30691-1.102-0.82055-2.3104-1.2111-2.8493-1.8828-5.09-2.6233-8.7508-0.80131-3.9617-0.86948-12.294-0.1293-15.804 2.278-10.801 8.4432-18.672 19.076-24.353l2.5332-1.3535-0.85536-1.0667c-1.2588-1.5699-4.7773-4.5792-7.2742-6.2215-2.7051-1.7793-5.7596-3.225-9.3498-4.4252-3.8647-1.292-6.8575-1.784-11.748-1.9314-3.5063-0.10568-4.7936-0.0322-7.4954 0.42772-7.1995 1.2256-14.258 4.5386-19.228 9.0247-1.8261 1.6485-4.0757 3.9769-4.0914 4.2348-4e-3 0.0728 0.91432 0.57109 2.0417 1.1074 4.7365 2.2532 9.2653 5.7484 12.472 9.6251 2.573 3.1108 4.2974 6.0262 5.5844 9.4414 3.527 9.3595 3.0494 19.827-1.4065 30.825-0.36851 0.9095-0.57478 1.6536-0.45837 1.6536s0.73264-0.18481 1.3694-0.41067zm80.93-15.422v-6.5722l-2.508-3.6804c-1.3794-2.0242-2.8877-4.246-3.3518-4.9372-0.46415-0.69123-0.93462-1.2568-1.0455-1.2568-0.11088 0-1.4761 1.8752-3.0338 4.1672-1.5577 2.292-3.0447 4.4053-3.3044 4.6964-0.55128 0.61776-0.57236 0.95133-0.53928 8.5328l0.0245 5.6224h13.758zm-119.77-18.935c3.5061-1.0468 3.7646-1.225 4.1514-2.8616 0.53831-2.278 2.0713-6.4923 3.2227-8.8596 0.59113-1.2153 1.0186-2.2659 0.94982-2.3347-0.35819-0.35819-6.335-0.69941-9.7378-0.55593-7.4655 0.31477-12.816 2.0234-18.735 5.9826-1.3372 0.89445-2.4313 1.7205-2.4313 1.8356 0 0.29885 2.5184 2.6296 4.2372 3.9214 1.8406 1.3834 4.5989 2.681 6.9992 3.2926 2.8204 0.71865 8.1962 0.51937 11.344-0.42053zm107.97-2.4386c1.2978-1.8353 2.7265-3.5607 3.175-3.8342 1.69-1.0305 3.2616-0.47292 4.9426 1.7536 0.60267 0.79824 1.1833 1.4513 1.2903 1.4513 0.34844 0 3.7106-3.2126 3.7106-3.5456 0-0.5807-4.1711-3.4194-7.028-4.783-4.4845-2.1405-8.4836-3.0201-14.685-3.2299-3.8895-0.13162-8.523 0.16653-8.9312 0.57469-0.0704 0.0704 0.35603 1.1716 0.9477 2.4471 1.0587 2.2822 2.6766 6.7804 3.2426 9.0153 0.25091 0.99077 0.43883 1.2044 1.4351 1.6314 1.1441 0.49043 4.4514 1.4611 5.704 1.6742 0.3638 0.0619 1.3758 0.12812 2.249 0.14722l1.5875 0.0347zm-92.085-21.862c0.74521-0.76398 2.0395-2.0054 2.8763-2.7586 0.83675-0.75327 1.5214-1.4282 1.5214-1.4999 0-0.0717-1.0418-0.6942-2.3151-1.3833-4.8016-2.5987-9.9874-6.7118-12.105-9.6006-1.4194-1.9366-1.4563-1.4551-0.2205 2.8732 0.87943 3.0802 2.6769 6.6888 4.5678 9.1704 1.7221 2.2601 3.815 4.5879 4.1248 4.5879 0.10731 0 0.80483-0.62508 1.55-1.3891zm70.153-0.26458c3.2001-3.5134 5.7968-8.1902 7.1402-12.86 1.0305-3.5819 0.85322-3.7894-1.1978-1.4022-3.0079 3.5009-7.191 6.682-11.864 9.0217l-2.2106 1.1069 1.1523 0.96511c0.63377 0.5308 2.0453 1.831 3.1367 2.8893s2.0637 1.9261 2.1606 1.9284c0.0969 2e-3 0.85403-0.73993 1.6824-1.6494z" fill="currentColor" stroke="none"/>
 </g>
</svg>